<svg xmlns="http://www.w3.org/2000/svg" width="60" height="77.245" viewBox="0 0 60 77.245">
  <g id="ativos" transform="translate(-3.5 -3.5)">
    <path id="Path_5635" data-name="Path 5635" d="M140.227,138.2h-6.08v-6.08H129.08v6.08H123v5.067h6.08v6.08h5.067v-6.08h6.08Z" transform="translate(-88.107 -94.916)" fill="#0098ff"/>
    <g id="Group_3028" data-name="Group 3028" transform="translate(5 5)">
      <path id="Path_5636" data-name="Path 5636" d="M12.418,108.143A7.388,7.388,0,0,1,5,101.072V87.98c0-6.179,10.627-9.51,17.308-9.51h0a26.526,26.526,0,0,1,12.317,3.017" transform="translate(-5 -59.858)" fill="rgba(0,0,0,0)" stroke="#fff" stroke-linecap="round" stroke-linejoin="round" stroke-miterlimit="10" stroke-width="3"/>
      <path id="Path_5637" data-name="Path 5637" d="M83.88,202.006V213.1a5.082,5.082,0,0,1-5.272,5.089C75.16,218.042,74,215.61,74,212.018V191.11" transform="translate(-56.52 -143.962)" fill="rgba(0,0,0,0)" stroke="#fff" stroke-linecap="round" stroke-linejoin="round" stroke-miterlimit="10" stroke-width="3"/>
      <path id="Path_5638" data-name="Path 5638" d="M35,122.11v39.482a5.084,5.084,0,0,0,5.272,5.089c3.455-.142,4.618-2.576,4.618-6.174" transform="translate(-27.4 -92.442)" fill="rgba(0,0,0,0)" stroke="#fff" stroke-linecap="round" stroke-linejoin="round" stroke-miterlimit="10" stroke-width="3"/>
      <path id="Path_5639" data-name="Path 5639" d="M51.473,23.683a7.162,7.162,0,0,0,7.473-7.473V12.473A7.164,7.164,0,0,0,51.473,5,7.164,7.164,0,0,0,44,12.473V16.21A7.162,7.162,0,0,0,51.473,23.683Z" transform="translate(-34.12 -5)" fill="rgba(0,0,0,0)" stroke="#fff" stroke-linecap="round" stroke-linejoin="round" stroke-miterlimit="10" stroke-width="3"/>
    </g>
    <path id="Path_5640" data-name="Path 5640" d="M102.493,120.7C84,114.452,84,99.617,84,95.713V80.1c8.844,0,18.493-6.247,18.493-6.247s9.649,6.247,18.493,6.247V95.713C120.987,99.617,120.987,114.452,102.493,120.7Z" transform="translate(-58.987 -51.408)" fill="rgba(0,0,0,0)" stroke="#fff" stroke-linecap="round" stroke-linejoin="round" stroke-miterlimit="10" stroke-width="3"/>
  </g>
</svg>
