<svg width="500" height="500" viewBox="0 0 500 500" fill="none" xmlns="http://www.w3.org/2000/svg">
<g clip-path="url(#clip0)">
<path d="M245.944 -21.6111C245.944 -24.035 247.909 -26 250.333 -26V-26C252.757 -26 254.722 -24.035 254.722 -21.6111V22.2778C254.722 24.7017 252.757 26.6667 250.333 26.6667V26.6667C247.909 26.6667 245.944 24.7017 245.944 22.2778V-21.6111Z" fill="#002B76"/>
<path d="M272.278 -4.05554C274.702 -4.05554 276.667 -2.09057 276.667 0.333347V0.333347C276.667 2.75726 274.702 4.72224 272.278 4.72224L228.389 4.72223C225.965 4.72223 224 2.75726 224 0.333344V0.333344C224 -2.09057 225.965 -4.05554 228.389 -4.05554L272.278 -4.05554Z" fill="#002B76"/>
<path d="M245.944 228.389C245.944 225.965 247.909 224 250.333 224V224C252.757 224 254.722 225.965 254.722 228.389V272.278C254.722 274.702 252.757 276.667 250.333 276.667V276.667C247.909 276.667 245.944 274.702 245.944 272.278V228.389Z" fill="#002B76"/>
<path d="M272.278 245.944C274.702 245.944 276.667 247.909 276.667 250.333V250.333C276.667 252.757 274.702 254.722 272.278 254.722L228.389 254.722C225.965 254.722 224 252.757 224 250.333V250.333C224 247.909 225.965 245.944 228.389 245.944L272.278 245.944Z" fill="#002B76"/>
<path d="M245.944 478.389C245.944 475.965 247.909 474 250.333 474V474C252.757 474 254.722 475.965 254.722 478.389V522.278C254.722 524.702 252.757 526.667 250.333 526.667V526.667C247.909 526.667 245.944 524.702 245.944 522.278V478.389Z" fill="#002B76"/>
<path d="M272.278 495.944C274.702 495.944 276.667 497.909 276.667 500.333V500.333C276.667 502.757 274.702 504.722 272.278 504.722L228.389 504.722C225.965 504.722 224 502.757 224 500.333V500.333C224 497.909 225.965 495.944 228.389 495.944L272.278 495.944Z" fill="#002B76"/>
<path d="M122.944 105.389C122.944 102.965 124.909 101 127.333 101V101C129.757 101 131.722 102.965 131.722 105.389V149.278C131.722 151.702 129.757 153.667 127.333 153.667V153.667C124.909 153.667 122.944 151.702 122.944 149.278V105.389Z" fill="#002B76"/>
<path d="M149.278 122.944C151.702 122.944 153.667 124.909 153.667 127.333V127.333C153.667 129.757 151.702 131.722 149.278 131.722L105.389 131.722C102.965 131.722 101 129.757 101 127.333V127.333C101 124.909 102.965 122.944 105.389 122.944L149.278 122.944Z" fill="#002B76"/>
<path d="M373.944 105.389C373.944 102.965 375.909 101 378.333 101V101C380.757 101 382.722 102.965 382.722 105.389V149.278C382.722 151.702 380.757 153.667 378.333 153.667V153.667C375.909 153.667 373.944 151.702 373.944 149.278V105.389Z" fill="#002B76"/>
<path d="M400.278 122.944C402.702 122.944 404.667 124.909 404.667 127.333V127.333C404.667 129.757 402.702 131.722 400.278 131.722L356.389 131.722C353.965 131.722 352 129.757 352 127.333V127.333C352 124.909 353.965 122.944 356.389 122.944L400.278 122.944Z" fill="#002B76"/>
<path d="M122.944 355.389C122.944 352.965 124.909 351 127.333 351V351C129.757 351 131.722 352.965 131.722 355.389V399.278C131.722 401.702 129.757 403.667 127.333 403.667V403.667C124.909 403.667 122.944 401.702 122.944 399.278V355.389Z" fill="#002B76"/>
<path d="M149.278 372.944C151.702 372.944 153.667 374.909 153.667 377.333V377.333C153.667 379.757 151.702 381.722 149.278 381.722L105.389 381.722C102.965 381.722 101 379.757 101 377.333V377.333C101 374.909 102.965 372.944 105.389 372.944L149.278 372.944Z" fill="#002B76"/>
<path d="M373.944 355.389C373.944 352.965 375.909 351 378.333 351V351C380.757 351 382.722 352.965 382.722 355.389V399.278C382.722 401.702 380.757 403.667 378.333 403.667V403.667C375.909 403.667 373.944 401.702 373.944 399.278V355.389Z" fill="#002B76"/>
<path d="M400.278 372.944C402.702 372.944 404.667 374.909 404.667 377.333V377.333C404.667 379.757 402.702 381.722 400.278 381.722L356.389 381.722C353.965 381.722 352 379.757 352 377.333V377.333C352 374.909 353.965 372.944 356.389 372.944L400.278 372.944Z" fill="#002B76"/>
<path d="M-4.05554 -21.6111C-4.05554 -24.035 -2.09057 -26 0.333347 -26V-26C2.75726 -26 4.72224 -24.035 4.72224 -21.6111V22.2778C4.72224 24.7017 2.75726 26.6667 0.333347 26.6667V26.6667C-2.09057 26.6667 -4.05554 24.7017 -4.05554 22.2778V-21.6111Z" fill="#002B76"/>
<path d="M22.2778 -4.05554C24.7017 -4.05554 26.6667 -2.09057 26.6667 0.333347V0.333347C26.6667 2.75726 24.7017 4.72224 22.2778 4.72224L-21.6111 4.72223C-24.035 4.72223 -26 2.75726 -26 0.333344V0.333344C-26 -2.09057 -24.035 -4.05554 -21.6111 -4.05554L22.2778 -4.05554Z" fill="#002B76"/>
<path d="M-4.05554 228.389C-4.05554 225.965 -2.09057 224 0.333347 224V224C2.75726 224 4.72224 225.965 4.72224 228.389V272.278C4.72224 274.702 2.75726 276.667 0.333347 276.667V276.667C-2.09057 276.667 -4.05554 274.702 -4.05554 272.278V228.389Z" fill="#002B76"/>
<path d="M22.2778 245.944C24.7017 245.944 26.6667 247.909 26.6667 250.333V250.333C26.6667 252.757 24.7017 254.722 22.2778 254.722L-21.6111 254.722C-24.035 254.722 -26 252.757 -26 250.333V250.333C-26 247.909 -24.035 245.944 -21.6111 245.944L22.2778 245.944Z" fill="#002B76"/>
<path d="M-4.05554 478.389C-4.05554 475.965 -2.09057 474 0.333347 474V474C2.75726 474 4.72224 475.965 4.72224 478.389V522.278C4.72224 524.702 2.75726 526.667 0.333347 526.667V526.667C-2.09057 526.667 -4.05554 524.702 -4.05554 522.278V478.389Z" fill="#002B76"/>
<path d="M22.2778 495.944C24.7017 495.944 26.6667 497.909 26.6667 500.333V500.333C26.6667 502.757 24.7017 504.722 22.2778 504.722L-21.6111 504.722C-24.035 504.722 -26 502.757 -26 500.333V500.333C-26 497.909 -24.035 495.944 -21.6111 495.944L22.2778 495.944Z" fill="#002B76"/>
<path d="M495.944 -21.6111C495.944 -24.035 497.909 -26 500.333 -26V-26C502.757 -26 504.722 -24.035 504.722 -21.6111V22.2778C504.722 24.7017 502.757 26.6667 500.333 26.6667V26.6667C497.909 26.6667 495.944 24.7017 495.944 22.2778V-21.6111Z" fill="#002B76"/>
<path d="M522.278 -4.05554C524.702 -4.05554 526.667 -2.09057 526.667 0.333347V0.333347C526.667 2.75726 524.702 4.72224 522.278 4.72224L478.389 4.72223C475.965 4.72223 474 2.75726 474 0.333344V0.333344C474 -2.09057 475.965 -4.05554 478.389 -4.05554L522.278 -4.05554Z" fill="#002B76"/>
<path d="M495.944 228.389C495.944 225.965 497.909 224 500.333 224V224C502.757 224 504.722 225.965 504.722 228.389V272.278C504.722 274.702 502.757 276.667 500.333 276.667V276.667C497.909 276.667 495.944 274.702 495.944 272.278V228.389Z" fill="#002B76"/>
<path d="M522.278 245.944C524.702 245.944 526.667 247.909 526.667 250.333V250.333C526.667 252.757 524.702 254.722 522.278 254.722L478.389 254.722C475.965 254.722 474 252.757 474 250.333V250.333C474 247.909 475.965 245.944 478.389 245.944L522.278 245.944Z" fill="#002B76"/>
<path d="M495.944 478.389C495.944 475.965 497.909 474 500.333 474V474C502.757 474 504.722 475.965 504.722 478.389V522.278C504.722 524.702 502.757 526.667 500.333 526.667V526.667C497.909 526.667 495.944 524.702 495.944 522.278V478.389Z" fill="#002B76"/>
<path d="M522.278 495.944C524.702 495.944 526.667 497.909 526.667 500.333V500.333C526.667 502.757 524.702 504.722 522.278 504.722L478.389 504.722C475.965 504.722 474 502.757 474 500.333V500.333C474 497.909 475.965 495.944 478.389 495.944L522.278 495.944Z" fill="#002B76"/>
</g>
<defs>
<clipPath id="clip0">
<rect width="500" height="500" fill="white"/>
</clipPath>
</defs>
</svg>
