<svg width="710" height="658" viewBox="0 0 710 658" fill="none" xmlns="http://www.w3.org/2000/svg">
<g clip-path="url(#clip0)">
<path d="M183.623 15.276C183.651 15.2757 183.678 15.2644 183.698 15.2444C183.718 15.2244 183.73 15.1973 183.73 15.169C183.73 15.1407 183.718 15.1136 183.698 15.0936C183.678 15.0736 183.651 15.0623 183.623 15.062C183.609 15.062 183.596 15.0648 183.583 15.0702C183.57 15.0757 183.559 15.0837 183.55 15.0937C183.54 15.1038 183.533 15.1156 183.529 15.1286C183.524 15.1415 183.522 15.1553 183.523 15.169C183.522 15.1827 183.524 15.1965 183.529 15.2094C183.533 15.2224 183.54 15.2343 183.55 15.2443C183.559 15.2543 183.57 15.2623 183.583 15.2678C183.596 15.2732 183.609 15.276 183.623 15.276Z" fill="#0B1157"/>
<path d="M229.417 15.595C229.53 15.5953 229.639 15.5506 229.72 15.4708C229.8 15.3909 229.845 15.2824 229.846 15.169C229.845 15.0557 229.8 14.9472 229.72 14.8673C229.639 14.7875 229.53 14.7428 229.417 14.743C229.304 14.7433 229.196 14.7883 229.116 14.8681C229.036 14.9479 228.991 15.0561 228.991 15.169C228.991 15.2819 229.036 15.3901 229.116 15.47C229.196 15.5498 229.304 15.5948 229.417 15.595Z" fill="#0B1157"/>
<path d="M275.221 16.02C275.447 16.0203 275.664 15.9308 275.824 15.7712C275.984 15.6117 276.074 15.3951 276.075 15.169C276.074 14.9429 275.984 14.7263 275.824 14.5668C275.664 14.4072 275.447 14.3177 275.221 14.318C274.995 14.3185 274.779 14.4084 274.62 14.5678C274.46 14.7273 274.371 14.9435 274.37 15.169C274.371 15.3945 274.46 15.6107 274.62 15.7702C274.779 15.9296 274.995 16.0195 275.221 16.02Z" fill="#0B1157"/>
<path d="M321.049 16.342C321.359 16.3409 321.657 16.2169 321.876 15.997C322.095 15.7772 322.218 15.4794 322.218 15.169C322.218 14.859 322.094 14.5619 321.875 14.3427C321.656 14.1235 321.359 14.0003 321.049 14C320.895 13.9997 320.743 14.0298 320.601 14.0884C320.459 14.147 320.329 14.233 320.22 14.3416C320.111 14.4501 320.025 14.5791 319.966 14.721C319.907 14.863 319.876 15.0152 319.876 15.169C319.876 15.48 320 15.7782 320.22 15.9981C320.44 16.2181 320.738 16.3417 321.049 16.342Z" fill="#0B1157"/>
<path d="M366.896 16.342C367.206 16.3409 367.504 16.2169 367.723 15.997C367.942 15.7772 368.065 15.4794 368.065 15.169C368.065 14.859 367.942 14.5619 367.722 14.3427C367.503 14.1235 367.206 14.0003 366.896 14C366.742 13.9997 366.59 14.0298 366.448 14.0884C366.306 14.147 366.176 14.233 366.067 14.3416C365.958 14.4501 365.872 14.5791 365.813 14.721C365.754 14.863 365.723 15.0152 365.723 15.169C365.723 15.48 365.847 15.7782 366.067 15.9981C366.287 16.2181 366.585 16.3417 366.896 16.342Z" fill="#0B1157"/>
<path d="M412.73 16.128C413.259 16.128 413.688 15.6991 413.688 15.17C413.688 14.6409 413.259 14.212 412.73 14.212C412.201 14.212 411.772 14.6409 411.772 15.17C411.772 15.6991 412.201 16.128 412.73 16.128Z" fill="#0B1157"/>
<path d="M458.545 15.703C458.615 15.7028 458.684 15.6889 458.748 15.662C458.813 15.6352 458.871 15.5958 458.92 15.5463C458.969 15.4968 459.008 15.4381 459.035 15.3735C459.061 15.3089 459.074 15.2397 459.074 15.17C459.074 15.1002 459.061 15.031 459.035 14.9665C459.008 14.9019 458.969 14.8431 458.92 14.7936C458.871 14.7441 458.813 14.7048 458.748 14.6779C458.684 14.651 458.615 14.6371 458.545 14.637C458.475 14.637 458.406 14.6508 458.341 14.6775C458.276 14.7043 458.218 14.7436 458.168 14.7931C458.119 14.8426 458.079 14.9013 458.053 14.966C458.026 15.0307 458.012 15.1 458.012 15.17C458.012 15.3113 458.068 15.4469 458.168 15.5469C458.268 15.6468 458.404 15.703 458.545 15.703Z" fill="#0B1157"/>
<path d="M504.336 15.276C504.35 15.276 504.363 15.2732 504.376 15.2678C504.389 15.2623 504.4 15.2543 504.409 15.2443C504.419 15.2343 504.426 15.2224 504.431 15.2094C504.435 15.1965 504.437 15.1827 504.436 15.169C504.437 15.1553 504.435 15.1415 504.431 15.1286C504.426 15.1156 504.419 15.1038 504.409 15.0937C504.4 15.0837 504.389 15.0757 504.376 15.0702C504.363 15.0648 504.35 15.062 504.336 15.062C504.308 15.0623 504.281 15.0736 504.261 15.0936C504.241 15.1136 504.229 15.1407 504.229 15.169C504.229 15.1973 504.241 15.2244 504.261 15.2444C504.281 15.2644 504.308 15.2757 504.336 15.276Z" fill="#0B1157"/>
<path d="M96.276 53.659C96.3043 53.6587 96.3314 53.6474 96.3514 53.6274C96.3714 53.6074 96.3827 53.5803 96.383 53.552C96.3827 53.5237 96.3714 53.4966 96.3514 53.4766C96.3314 53.4566 96.3043 53.4453 96.276 53.445C96.2477 53.4453 96.2206 53.4566 96.2006 53.4766C96.1806 53.4966 96.1693 53.5237 96.169 53.552C96.1693 53.5803 96.1806 53.6074 96.2006 53.6274C96.2206 53.6474 96.2477 53.6587 96.276 53.659Z" fill="#0B1157"/>
<path d="M160.649 54.296C160.747 54.2961 160.844 54.277 160.934 54.2396C161.024 54.2023 161.106 54.1475 161.175 54.0784C161.245 54.0093 161.299 53.9272 161.337 53.8369C161.374 53.7465 161.393 53.6497 161.393 53.552C161.393 53.4542 161.374 53.3574 161.337 53.2671C161.299 53.1768 161.245 53.0947 161.175 53.0256C161.106 52.9565 161.024 52.9017 160.934 52.8644C160.844 52.827 160.747 52.8079 160.649 52.808C160.551 52.8079 160.454 52.827 160.364 52.8644C160.274 52.9017 160.192 52.9565 160.123 53.0256C160.054 53.0947 159.999 53.1768 159.961 53.2671C159.924 53.3574 159.905 53.4542 159.905 53.552C159.905 53.6497 159.924 53.7465 159.961 53.8369C159.999 53.9272 160.054 54.0093 160.123 54.0784C160.192 54.1475 160.274 54.2023 160.364 54.2396C160.454 54.277 160.551 54.2961 160.649 54.296Z" fill="#0B1157"/>
<path d="M206.402 55.254C206.625 55.254 206.846 55.21 207.053 55.1246C207.259 55.0392 207.446 54.9139 207.604 54.7561C207.762 54.5982 207.887 54.4108 207.973 54.2046C208.058 53.9983 208.102 53.7772 208.102 53.554C208.102 53.3308 208.058 53.1097 207.973 52.9034C207.887 52.6972 207.762 52.5098 207.604 52.3519C207.446 52.1941 207.259 52.0688 207.053 51.9834C206.846 51.898 206.625 51.854 206.402 51.854C205.951 51.854 205.519 52.0331 205.2 52.3519C204.881 52.6707 204.702 53.1031 204.702 53.554C204.702 54.0049 204.881 54.4373 205.2 54.7561C205.519 55.0749 205.951 55.254 206.402 55.254Z" fill="#0B1157"/>
<path d="M252.221 55.894C252.842 55.894 253.438 55.6473 253.877 55.2081C254.316 54.7689 254.563 54.1732 254.563 53.552C254.563 52.9309 254.316 52.3352 253.877 51.896C253.438 51.4568 252.842 51.21 252.221 51.21C251.6 51.21 251.004 51.4568 250.565 51.896C250.126 52.3352 249.879 52.9309 249.879 53.552C249.879 54.1732 250.126 54.7689 250.565 55.2081C251.004 55.6473 251.6 55.894 252.221 55.894Z" fill="#0B1157"/>
<path d="M298.081 56.319C298.445 56.3191 298.805 56.2476 299.14 56.1086C299.476 55.9695 299.781 55.7656 300.039 55.5085C300.296 55.2515 300.499 54.9463 300.639 54.6104C300.778 54.2745 300.849 53.9145 300.849 53.551C300.849 53.1874 300.778 52.8273 300.639 52.4913C300.5 52.1553 300.296 51.8499 300.039 51.5928C299.782 51.3356 299.477 51.1316 299.141 50.9925C298.805 50.8534 298.445 50.7819 298.081 50.782C297.717 50.7819 297.357 50.8534 297.022 50.9924C296.686 51.1315 296.38 51.3354 296.123 51.5924C295.866 51.8495 295.662 52.1547 295.523 52.4906C295.384 52.8265 295.313 53.1864 295.313 53.55C295.313 53.9136 295.384 54.2737 295.523 54.6097C295.662 54.9457 295.866 55.251 296.123 55.5082C296.38 55.7654 296.685 55.9693 297.021 56.1085C297.357 56.2476 297.717 56.3191 298.081 56.319Z" fill="#0B1157"/>
<path d="M343.962 56.532C344.353 56.532 344.741 56.4548 345.103 56.3049C345.464 56.155 345.793 55.9353 346.07 55.6584C346.346 55.3815 346.566 55.0527 346.715 54.6909C346.865 54.3291 346.941 53.9414 346.941 53.55C346.941 53.1587 346.865 52.7711 346.715 52.4095C346.566 52.0479 346.346 51.7193 346.069 51.4426C345.793 51.1659 345.464 50.9465 345.103 50.7969C344.741 50.6474 344.353 50.5706 343.962 50.571C343.571 50.5706 343.183 50.6474 342.822 50.7969C342.46 50.9465 342.131 51.1659 341.855 51.4426C341.578 51.7193 341.359 52.0479 341.209 52.4095C341.059 52.7711 340.983 53.1587 340.983 53.55C340.983 53.9414 341.059 54.3291 341.209 54.6909C341.358 55.0527 341.578 55.3815 341.855 55.6584C342.131 55.9353 342.46 56.155 342.821 56.3049C343.183 56.4548 343.571 56.532 343.962 56.532Z" fill="#0B1157"/>
<path d="M389.848 56.426C391.435 56.426 392.722 55.1392 392.722 53.552C392.722 51.9647 391.435 50.678 389.848 50.678C388.261 50.678 386.974 51.9647 386.974 53.552C386.974 55.1392 388.261 56.426 389.848 56.426Z" fill="#0B1157"/>
<path d="M435.715 56C437.067 56 438.163 54.904 438.163 53.552C438.163 52.2 437.067 51.104 435.715 51.104C434.363 51.104 433.267 52.2 433.267 53.552C433.267 54.904 434.363 56 435.715 56Z" fill="#0B1157"/>
<path d="M481.537 55.254C481.988 55.254 482.42 55.0749 482.739 54.7561C483.058 54.4373 483.237 54.0049 483.237 53.554C483.237 53.1031 483.058 52.6707 482.739 52.3519C482.42 52.0331 481.988 51.854 481.537 51.854C481.314 51.854 481.093 51.898 480.886 51.9834C480.68 52.0688 480.493 52.1941 480.335 52.3519C480.177 52.5098 480.052 52.6972 479.966 52.9034C479.881 53.1097 479.837 53.3308 479.837 53.554C479.837 53.7772 479.881 53.9983 479.966 54.2046C480.052 54.4108 480.177 54.5982 480.335 54.7561C480.493 54.9139 480.68 55.0392 480.886 55.1246C481.093 55.21 481.314 55.254 481.537 55.254Z" fill="#0B1157"/>
<path d="M527.31 54.403C527.422 54.4031 527.532 54.3812 527.636 54.3385C527.739 54.2958 527.833 54.2331 527.912 54.154C527.991 54.075 528.054 53.9811 528.096 53.8778C528.139 53.7745 528.161 53.6638 528.161 53.552C528.161 53.4402 528.139 53.3295 528.096 53.2262C528.054 53.1229 527.991 53.029 527.912 52.95C527.833 52.8709 527.739 52.8082 527.636 52.7655C527.532 52.7228 527.422 52.7009 527.31 52.701C527.198 52.7009 527.087 52.7228 526.984 52.7655C526.881 52.8082 526.787 52.8709 526.708 52.95C526.629 53.029 526.566 53.1229 526.523 53.2262C526.481 53.3295 526.459 53.4402 526.459 53.552C526.459 53.6638 526.481 53.7745 526.523 53.8778C526.566 53.9811 526.629 54.075 526.708 54.154C526.787 54.2331 526.881 54.2958 526.984 54.3385C527.087 54.3812 527.198 54.4031 527.31 54.403Z" fill="#0B1157"/>
<path d="M595.358 53.659C595.386 53.6587 595.413 53.6474 595.433 53.6274C595.453 53.6074 595.465 53.5803 595.465 53.552C595.465 53.5237 595.453 53.4966 595.433 53.4766C595.413 53.4566 595.386 53.4453 595.358 53.445C595.33 53.4453 595.303 53.4566 595.283 53.4766C595.263 53.4966 595.251 53.5237 595.251 53.552C595.251 53.5803 595.263 53.6074 595.283 53.6274C595.303 53.6474 595.33 53.6587 595.358 53.659Z" fill="#0B1157"/>
<path d="M77.086 92.36C77.142 92.3601 77.1975 92.3492 77.2492 92.3278C77.301 92.3065 77.348 92.2751 77.3876 92.2355C77.4271 92.1959 77.4585 92.1489 77.4799 92.0972C77.5012 92.0454 77.5122 91.99 77.512 91.934C77.5122 91.878 77.5012 91.8226 77.4799 91.7708C77.4585 91.7191 77.4271 91.6721 77.3876 91.6325C77.348 91.5929 77.301 91.5615 77.2492 91.5402C77.1975 91.5188 77.142 91.5079 77.086 91.508C77.0301 91.5079 76.9746 91.5188 76.9229 91.5402C76.8711 91.5615 76.8241 91.5929 76.7845 91.6325C76.7449 91.6721 76.7136 91.7191 76.6922 91.7708C76.6708 91.8226 76.6599 91.878 76.66 91.934C76.6599 91.99 76.6708 92.0454 76.6922 92.0972C76.7136 92.1489 76.7449 92.1959 76.7845 92.2355C76.8241 92.2751 76.8711 92.3065 76.9229 92.3278C76.9746 92.3492 77.0301 92.3601 77.086 92.36Z" fill="#0B1157"/>
<path d="M115.468 93.532C116.35 93.532 117.065 92.817 117.065 91.935C117.065 91.053 116.35 90.338 115.468 90.338C114.586 90.338 113.871 91.053 113.871 91.935C113.871 92.817 114.586 93.532 115.468 93.532Z" fill="#0B1157"/>
<path d="M183.373 94.702C184.901 94.702 186.14 93.4631 186.14 91.935C186.14 90.4068 184.901 89.168 183.373 89.168C181.845 89.168 180.606 90.4068 180.606 91.935C180.606 93.4631 181.845 94.702 183.373 94.702Z" fill="#0B1157"/>
<path d="M229.188 95.66C231.245 95.66 232.913 93.9923 232.913 91.935C232.913 89.8778 231.245 88.21 229.188 88.21C227.131 88.21 225.463 89.8778 225.463 91.935C225.463 93.9923 227.131 95.66 229.188 95.66Z" fill="#0B1157"/>
<path d="M275.068 96.299C277.478 96.299 279.432 94.3452 279.432 91.935C279.432 89.5248 277.478 87.571 275.068 87.571C272.658 87.571 270.704 89.5248 270.704 91.935C270.704 94.3452 272.658 96.299 275.068 96.299Z" fill="#0B1157"/>
<path d="M320.986 96.618C321.601 96.6179 322.21 96.4966 322.778 96.2611C323.346 96.0257 323.862 95.6806 324.297 95.2456C324.731 94.8107 325.076 94.2943 325.311 93.7261C325.546 93.1579 325.667 92.5489 325.667 91.934C325.667 90.6923 325.174 89.5015 324.296 88.6233C323.418 87.745 322.228 87.2511 320.986 87.25C319.744 87.2503 318.553 87.7438 317.674 88.6222C316.796 89.5006 316.302 90.6918 316.302 91.934C316.302 92.5492 316.423 93.1583 316.658 93.7266C316.894 94.295 317.239 94.8114 317.674 95.2464C318.109 95.6814 318.625 96.0264 319.193 96.2617C319.762 96.4971 320.371 96.6181 320.986 96.618Z" fill="#0B1157"/>
<path d="M366.917 96.618C369.503 96.618 371.6 94.5214 371.6 91.935C371.6 89.3487 369.503 87.252 366.917 87.252C364.331 87.252 362.234 89.3487 362.234 91.935C362.234 94.5214 364.331 96.618 366.917 96.618Z" fill="#0B1157"/>
<path d="M412.839 96.299C415.249 96.299 417.203 94.3452 417.203 91.935C417.203 89.5248 415.249 87.571 412.839 87.571C410.429 87.571 408.475 89.5248 408.475 91.935C408.475 94.3452 410.429 96.299 412.839 96.299Z" fill="#0B1157"/>
<path d="M458.725 95.66C460.782 95.66 462.45 93.9923 462.45 91.935C462.45 89.8778 460.782 88.21 458.725 88.21C456.668 88.21 455 89.8778 455 91.935C455 93.9923 456.668 95.66 458.725 95.66Z" fill="#0B1157"/>
<path d="M504.562 94.809C506.149 94.809 507.436 93.5222 507.436 91.935C507.436 90.3477 506.149 89.061 504.562 89.061C502.975 89.061 501.688 90.3477 501.688 91.935C501.688 93.5222 502.975 94.809 504.562 94.809Z" fill="#0B1157"/>
<path d="M550.322 93.636C550.773 93.636 551.205 93.4569 551.524 93.138C551.843 92.8192 552.022 92.3868 552.022 91.936C552.022 91.4851 551.843 91.0527 551.524 90.7339C551.205 90.4151 550.773 90.236 550.322 90.236C550.098 90.2353 549.877 90.2788 549.67 90.3639C549.463 90.4491 549.275 90.5742 549.117 90.7321C548.958 90.89 548.833 91.0777 548.747 91.2842C548.661 91.4908 548.617 91.7123 548.617 91.936C548.617 92.1596 548.661 92.3811 548.747 92.5877C548.833 92.7943 548.958 92.9819 549.117 93.1398C549.275 93.2977 549.463 93.4229 549.67 93.508C549.877 93.5931 550.098 93.6366 550.322 93.636Z" fill="#0B1157"/>
<path d="M614.552 92.468C614.622 92.4678 614.691 92.4539 614.755 92.4271C614.82 92.4002 614.878 92.3608 614.927 92.3113C614.976 92.2618 615.015 92.2031 615.042 92.1385C615.068 92.0739 615.081 92.0047 615.081 91.935C615.081 91.8652 615.068 91.796 615.042 91.7315C615.015 91.6669 614.976 91.6081 614.927 91.5586C614.878 91.5091 614.82 91.4698 614.755 91.4429C614.691 91.416 614.622 91.4021 614.552 91.402C614.411 91.402 614.275 91.4581 614.175 91.5581C614.075 91.658 614.019 91.7936 614.019 91.935C614.019 92.0763 614.075 92.2119 614.175 92.3119C614.275 92.4118 614.411 92.468 614.552 92.468Z" fill="#0B1157"/>
<path d="M57.894 147.42C58.0917 147.419 58.2811 147.341 58.4206 147.2C58.5601 147.06 58.6383 146.871 58.638 146.673C58.6382 146.575 58.619 146.478 58.5817 146.388C58.5443 146.298 58.4895 146.216 58.4204 146.147C58.3513 146.078 58.2692 146.023 58.1789 145.985C58.0886 145.948 57.9918 145.929 57.894 145.929C57.7963 145.929 57.6995 145.948 57.6092 145.985C57.5188 146.023 57.4368 146.078 57.3676 146.147C57.2985 146.216 57.2437 146.298 57.2064 146.388C57.169 146.478 57.1499 146.575 57.15 146.673C57.1498 146.871 57.228 147.06 57.3675 147.2C57.507 147.341 57.6963 147.419 57.894 147.42Z" fill="#0B1157"/>
<path d="M96.276 148.781C97.5104 148.781 98.511 147.78 98.511 146.546C98.511 145.312 97.5104 144.311 96.276 144.311C95.0417 144.311 94.041 145.312 94.041 146.546C94.041 147.78 95.0417 148.781 96.276 148.781Z" fill="#0B1157"/>
<path d="M160.35 149.948C162.29 149.948 163.862 148.376 163.862 146.436C163.862 144.496 162.29 142.924 160.35 142.924C158.41 142.924 156.838 144.496 156.838 146.436C156.838 148.376 158.41 149.948 160.35 149.948Z" fill="#0B1157"/>
<path d="M206.155 151.018C208.741 151.018 210.838 148.921 210.838 146.335C210.838 143.749 208.741 141.652 206.155 141.652C203.569 141.652 201.472 143.749 201.472 146.335C201.472 148.921 203.569 151.018 206.155 151.018Z" fill="#0B1157"/>
<path d="M252.031 151.892C255.146 151.892 257.672 149.366 257.672 146.251C257.672 143.136 255.146 140.61 252.031 140.61C248.916 140.61 246.39 143.136 246.39 146.251C246.39 149.366 248.916 151.892 252.031 151.892Z" fill="#0B1157"/>
<path d="M297.968 152.476C301.436 152.476 304.248 149.664 304.248 146.196C304.248 142.728 301.436 139.916 297.968 139.916C294.5 139.916 291.688 142.728 291.688 146.196C291.688 149.664 294.5 152.476 297.968 152.476Z" fill="#0B1157"/>
<path d="M343.939 152.766C347.584 152.766 350.538 149.812 350.538 146.167C350.538 142.522 347.584 139.568 343.939 139.568C340.294 139.568 337.34 142.522 337.34 146.167C337.34 149.812 340.294 152.766 343.939 152.766Z" fill="#0B1157"/>
<path d="M389.916 152.571C390.755 152.571 391.585 152.406 392.36 152.085C393.135 151.765 393.839 151.294 394.432 150.701C395.025 150.108 395.496 149.404 395.816 148.629C396.137 147.854 396.302 147.024 396.302 146.185C396.302 145.346 396.137 144.516 395.816 143.741C395.495 142.966 395.025 142.262 394.432 141.669C393.839 141.076 393.135 140.606 392.36 140.285C391.585 139.964 390.755 139.799 389.916 139.799C388.223 139.8 386.599 140.473 385.401 141.67C384.204 142.868 383.531 144.491 383.53 146.185C383.53 147.024 383.695 147.854 384.016 148.629C384.337 149.404 384.807 150.108 385.4 150.701C385.993 151.294 386.697 151.764 387.472 152.085C388.247 152.406 389.077 152.571 389.916 152.571Z" fill="#0B1157"/>
<path d="M435.864 151.99C439.038 151.99 441.612 149.417 441.612 146.242C441.612 143.067 439.038 140.494 435.864 140.494C432.689 140.494 430.116 143.067 430.116 146.242C430.116 149.417 432.689 151.99 435.864 151.99Z" fill="#0B1157"/>
<path d="M481.755 151.116C484.4 151.116 486.545 148.971 486.545 146.326C486.545 143.681 484.4 141.536 481.755 141.536C479.11 141.536 476.965 143.681 476.965 146.326C476.965 148.971 479.11 151.116 481.755 151.116Z" fill="#0B1157"/>
<path d="M527.576 150.045C528.051 150.045 528.522 149.952 528.961 149.77C529.4 149.588 529.799 149.322 530.136 148.986C530.472 148.65 530.738 148.25 530.92 147.811C531.102 147.372 531.195 146.901 531.195 146.426C531.195 145.951 531.102 145.48 530.92 145.041C530.738 144.602 530.472 144.203 530.136 143.866C529.799 143.53 529.4 143.264 528.961 143.082C528.522 142.9 528.051 142.807 527.576 142.807C527.101 142.807 526.63 142.9 526.191 143.082C525.752 143.264 525.352 143.53 525.016 143.866C524.68 144.203 524.414 144.602 524.232 145.041C524.05 145.48 523.957 145.951 523.957 146.426C523.957 146.901 524.05 147.372 524.232 147.811C524.414 148.25 524.68 148.65 525.016 148.986C525.352 149.322 525.752 149.588 526.191 149.77C526.63 149.952 527.101 150.045 527.576 150.045Z" fill="#0B1157"/>
<path d="M595.358 148.88C595.666 148.88 595.97 148.819 596.254 148.702C596.539 148.584 596.797 148.411 597.014 148.194C597.232 147.976 597.404 147.718 597.522 147.434C597.64 147.149 597.7 146.845 597.7 146.537C597.7 145.916 597.453 145.32 597.014 144.881C596.575 144.442 595.979 144.195 595.358 144.195C594.737 144.195 594.141 144.442 593.702 144.881C593.263 145.32 593.016 145.916 593.016 146.537C593.016 146.845 593.076 147.149 593.194 147.434C593.312 147.718 593.484 147.976 593.702 148.194C593.919 148.411 594.177 148.584 594.462 148.702C594.746 148.819 595.05 148.88 595.358 148.88Z" fill="#0B1157"/>
<path d="M633.742 147.613C634.271 147.613 634.7 147.184 634.7 146.655C634.7 146.126 634.271 145.697 633.742 145.697C633.213 145.697 632.784 146.126 632.784 146.655C632.784 147.184 633.213 147.613 633.742 147.613Z" fill="#0B1157"/>
<path d="M38.701 191.331C38.927 191.331 39.144 191.242 39.3041 191.082C39.4642 190.923 39.5544 190.706 39.555 190.48C39.5544 190.254 39.4642 190.037 39.3041 189.878C39.144 189.718 38.927 189.629 38.701 189.629C38.5892 189.629 38.4785 189.651 38.3752 189.694C38.2718 189.736 38.178 189.799 38.0989 189.878C38.0199 189.957 37.9572 190.051 37.9145 190.154C37.8718 190.258 37.8498 190.368 37.85 190.48C37.8498 190.592 37.8718 190.703 37.9145 190.806C37.9572 190.909 38.0199 191.003 38.0989 191.082C38.178 191.161 38.2718 191.224 38.3752 191.267C38.4785 191.309 38.5892 191.331 38.701 191.331Z" fill="#0B1157"/>
<path d="M77.083 192.824C77.7325 192.824 78.3555 192.566 78.8147 192.107C79.274 191.647 79.532 191.025 79.532 190.375C79.532 190.054 79.4687 189.735 79.3455 189.438C79.2224 189.141 79.042 188.872 78.8145 188.644C78.5871 188.417 78.3171 188.237 78.02 188.114C77.7229 187.992 77.4045 187.929 77.083 187.929C76.4343 187.929 75.8122 188.187 75.3534 188.645C74.8947 189.104 74.637 189.726 74.637 190.375C74.637 191.024 74.8946 191.646 75.3533 192.106C75.8119 192.565 76.434 192.823 77.083 192.824Z" fill="#0B1157"/>
<path d="M137.335 194.311C139.568 194.311 141.379 192.5 141.379 190.267C141.379 188.034 139.568 186.223 137.335 186.223C135.102 186.223 133.291 188.034 133.291 190.267C133.291 192.5 135.102 194.311 137.335 194.311Z" fill="#0B1157"/>
<path d="M183.115 195.602C183.828 195.602 184.534 195.462 185.193 195.189C185.852 194.917 186.451 194.517 186.955 194.013C187.459 193.509 187.859 192.91 188.132 192.252C188.405 191.593 188.546 190.887 188.546 190.174C188.545 188.734 187.973 187.353 186.954 186.336C185.936 185.318 184.555 184.746 183.115 184.746C181.676 184.747 180.295 185.319 179.277 186.336C178.26 187.354 177.688 188.735 177.687 190.174C177.687 191.614 178.259 192.994 179.277 194.012C180.295 195.03 181.675 195.602 183.115 195.602Z" fill="#0B1157"/>
<path d="M228.975 196.791C229.856 196.792 230.728 196.62 231.541 196.283C232.355 195.947 233.095 195.454 233.718 194.831C234.341 194.209 234.835 193.47 235.172 192.657C235.509 191.843 235.683 190.972 235.683 190.091C235.681 188.313 234.974 186.609 233.716 185.353C232.458 184.096 230.753 183.391 228.975 183.391C227.199 183.393 225.495 184.099 224.239 185.355C222.983 186.611 222.277 188.315 222.275 190.091C222.275 191.868 222.981 193.572 224.237 194.829C224.86 195.451 225.598 195.944 226.411 196.281C227.224 196.618 228.095 196.791 228.975 196.791Z" fill="#0B1157"/>
<path d="M274.916 197.686C275.923 197.686 276.919 197.488 277.849 197.104C278.779 196.719 279.625 196.154 280.336 195.443C281.048 194.731 281.613 193.886 281.998 192.956C282.384 192.026 282.582 191.03 282.582 190.023C282.581 187.99 281.774 186.041 280.336 184.604C278.898 183.167 276.949 182.36 274.916 182.36C272.884 182.36 270.935 183.168 269.498 184.605C268.061 186.042 267.253 187.991 267.253 190.023C267.253 191.029 267.451 192.026 267.836 192.956C268.221 193.885 268.786 194.73 269.497 195.442C270.209 196.153 271.054 196.718 271.983 197.103C272.913 197.488 273.91 197.686 274.916 197.686Z" fill="#0B1157"/>
<path d="M320.916 198.279C322.006 198.279 323.085 198.064 324.092 197.647C325.099 197.23 326.014 196.619 326.785 195.848C327.556 195.077 328.167 194.162 328.584 193.155C329.001 192.148 329.216 191.069 329.216 189.979C329.216 187.778 328.342 185.667 326.785 184.11C325.228 182.553 323.117 181.679 320.916 181.679C318.715 181.679 316.604 182.553 315.047 184.11C313.49 185.667 312.616 187.778 312.616 189.979C312.616 192.18 313.49 194.291 315.047 195.848C316.604 197.405 318.715 198.279 320.916 198.279Z" fill="#0B1157"/>
<path d="M366.943 198.279C369.144 198.279 371.255 197.405 372.812 195.848C374.369 194.291 375.243 192.18 375.243 189.979C375.243 187.778 374.369 185.667 372.812 184.11C371.255 182.553 369.144 181.679 366.943 181.679C364.742 181.679 362.631 182.553 361.074 184.11C359.517 185.667 358.643 187.778 358.643 189.979C358.643 192.18 359.517 194.291 361.074 195.848C362.631 197.405 364.742 198.279 366.943 198.279Z" fill="#0B1157"/>
<path d="M412.951 197.783C413.971 197.783 414.981 197.582 415.924 197.191C416.866 196.801 417.722 196.228 418.444 195.507C419.165 194.785 419.737 193.929 420.127 192.986C420.517 192.043 420.717 191.033 420.717 190.013C420.717 187.953 419.899 185.977 418.443 184.52C416.987 183.063 415.011 182.244 412.951 182.243C410.89 182.243 408.914 183.062 407.457 184.519C406 185.976 405.181 187.952 405.181 190.013C405.181 191.034 405.381 192.044 405.772 192.987C406.162 193.93 406.734 194.787 407.456 195.508C408.178 196.23 409.034 196.802 409.977 197.192C410.92 197.583 411.931 197.783 412.951 197.783Z" fill="#0B1157"/>
<path d="M458.908 196.891C460.714 196.891 462.446 196.173 463.723 194.896C465.001 193.618 465.718 191.886 465.718 190.08C465.717 188.274 465 186.542 463.723 185.264C462.446 183.987 460.714 183.269 458.908 183.268C458.013 183.268 457.128 183.444 456.301 183.786C455.474 184.129 454.723 184.63 454.091 185.263C453.458 185.895 452.957 186.646 452.614 187.473C452.272 188.3 452.096 189.185 452.096 190.08C452.096 190.975 452.272 191.86 452.614 192.687C452.956 193.514 453.458 194.265 454.091 194.897C454.723 195.53 455.474 196.031 456.301 196.373C457.128 196.716 458.013 196.891 458.908 196.891Z" fill="#0B1157"/>
<path d="M504.786 195.701C505.513 195.701 506.232 195.558 506.904 195.279C507.575 195.001 508.185 194.593 508.698 194.079C509.212 193.565 509.62 192.955 509.897 192.284C510.175 191.612 510.318 190.893 510.318 190.166C510.318 188.699 509.735 187.291 508.698 186.253C507.661 185.215 506.253 184.632 504.786 184.631C503.318 184.631 501.91 185.214 500.872 186.252C499.834 187.29 499.251 188.698 499.251 190.166C499.251 190.893 499.394 191.613 499.672 192.284C499.95 192.956 500.358 193.566 500.872 194.08C501.386 194.594 501.996 195.002 502.668 195.28C503.339 195.558 504.059 195.701 504.786 195.701Z" fill="#0B1157"/>
<path d="M550.59 194.412C551.135 194.412 551.675 194.304 552.178 194.096C552.681 193.887 553.139 193.581 553.524 193.196C553.909 192.81 554.215 192.353 554.423 191.849C554.631 191.346 554.738 190.806 554.738 190.261C554.738 189.161 554.301 188.105 553.523 187.327C552.746 186.548 551.691 186.11 550.59 186.109C549.489 186.109 548.434 186.547 547.655 187.325C546.877 188.104 546.439 189.159 546.439 190.26C546.439 190.805 546.546 191.345 546.754 191.849C546.963 192.353 547.269 192.811 547.654 193.196C548.04 193.582 548.497 193.888 549.001 194.096C549.505 194.305 550.045 194.412 550.59 194.412Z" fill="#0B1157"/>
<path d="M614.55 192.921C615.961 192.921 617.104 191.778 617.104 190.367C617.104 188.956 615.961 187.813 614.55 187.813C613.14 187.813 611.996 188.956 611.996 190.367C611.996 191.778 613.14 192.921 614.55 192.921Z" fill="#0B1157"/>
<path d="M652.934 191.532C653.074 191.532 653.212 191.504 653.341 191.451C653.47 191.397 653.587 191.318 653.686 191.219C653.785 191.12 653.863 191.003 653.916 190.873C653.969 190.744 653.996 190.606 653.996 190.466C653.996 190.326 653.969 190.188 653.916 190.059C653.862 189.93 653.784 189.813 653.686 189.714C653.587 189.616 653.47 189.538 653.341 189.484C653.212 189.431 653.074 189.404 652.934 189.404C652.794 189.404 652.656 189.431 652.527 189.484C652.397 189.537 652.28 189.615 652.181 189.714C652.082 189.813 652.003 189.93 651.95 190.059C651.896 190.188 651.868 190.326 651.868 190.466C651.868 190.749 651.98 191.02 652.18 191.22C652.38 191.42 652.651 191.532 652.934 191.532Z" fill="#0B1157"/>
<path d="M19.511 234.947C19.5948 234.947 19.6779 234.93 19.7553 234.898C19.8327 234.866 19.903 234.819 19.9622 234.759C20.0213 234.7 20.0682 234.629 20.1001 234.552C20.132 234.474 20.1482 234.391 20.148 234.307C20.1482 234.223 20.1319 234.14 20.1 234.063C20.0681 233.986 20.0212 233.915 19.962 233.856C19.9028 233.797 19.8325 233.75 19.7551 233.718C19.6776 233.686 19.5947 233.67 19.511 233.67C19.4271 233.67 19.344 233.686 19.2664 233.718C19.1889 233.75 19.1183 233.797 19.0589 233.856C18.9995 233.915 18.9523 233.985 18.92 234.063C18.8878 234.14 18.8711 234.223 18.871 234.307C18.8712 234.477 18.9387 234.639 19.0587 234.759C19.1787 234.879 19.3413 234.947 19.511 234.947Z" fill="#0B1157"/>
<path d="M57.893 236.568C58.5142 236.568 59.1099 236.321 59.5491 235.882C59.9883 235.443 60.235 234.847 60.235 234.226C60.235 233.605 59.9883 233.009 59.5491 232.57C59.1099 232.131 58.5142 231.884 57.893 231.884C57.2719 231.884 56.6762 232.131 56.237 232.57C55.7978 233.009 55.551 233.605 55.551 234.226C55.551 234.847 55.7978 235.443 56.237 235.882C56.6762 236.321 57.2719 236.568 57.893 236.568Z" fill="#0B1157"/>
<path d="M96.276 238.188C96.8071 238.188 97.3331 238.084 97.8239 237.881C98.3146 237.678 98.7605 237.38 99.1361 237.004C99.5117 236.629 99.8096 236.183 100.013 235.692C100.216 235.201 100.32 234.675 100.32 234.144C100.32 233.072 99.8936 232.043 99.1352 231.285C98.3769 230.526 97.3484 230.1 96.276 230.1C95.2035 230.1 94.1751 230.526 93.4167 231.285C92.6584 232.043 92.2323 233.072 92.232 234.144C92.2317 234.675 92.3362 235.201 92.5393 235.692C92.7424 236.183 93.0403 236.629 93.4159 237.004C93.7914 237.38 94.2374 237.678 94.7281 237.881C95.2189 238.084 95.7449 238.188 96.276 238.188Z" fill="#0B1157"/>
<path d="M160.118 239.71C161.614 239.709 163.049 239.115 164.107 238.057C165.165 236.999 165.759 235.564 165.76 234.068C165.759 232.572 165.164 231.138 164.106 230.081C163.048 229.023 161.614 228.429 160.118 228.429C158.622 228.429 157.187 229.023 156.129 230.08C155.071 231.138 154.477 232.572 154.476 234.068C154.476 234.809 154.622 235.543 154.905 236.227C155.189 236.912 155.604 237.534 156.128 238.058C156.652 238.582 157.274 238.997 157.959 239.281C158.643 239.564 159.377 239.71 160.118 239.71Z" fill="#0B1157"/>
<path d="M205.939 241.227C207.858 241.227 209.699 240.465 211.056 239.107C212.414 237.75 213.176 235.909 213.176 233.99C213.175 232.071 212.413 230.23 211.056 228.873C209.699 227.516 207.858 226.754 205.939 226.753C204.02 226.754 202.179 227.516 200.822 228.873C199.465 230.23 198.703 232.071 198.702 233.99C198.702 235.909 199.464 237.75 200.822 239.107C202.179 240.465 204.02 241.227 205.939 241.227Z" fill="#0B1157"/>
<path d="M251.856 242.542C252.988 242.542 254.109 242.319 255.155 241.886C256.201 241.453 257.152 240.818 257.952 240.017C258.753 239.217 259.388 238.266 259.821 237.22C260.254 236.174 260.477 235.053 260.477 233.921C260.477 231.635 259.568 229.442 257.952 227.825C256.335 226.209 254.142 225.3 251.856 225.3C249.57 225.3 247.377 226.209 245.76 227.825C244.144 229.442 243.235 231.635 243.235 233.921C243.235 235.053 243.458 236.174 243.891 237.22C244.324 238.266 244.959 239.217 245.76 240.017C246.56 240.818 247.511 241.453 248.557 241.886C249.603 242.319 250.724 242.542 251.856 242.542Z" fill="#0B1157"/>
<path d="M297.855 243.555C299.127 243.555 300.387 243.305 301.563 242.819C302.739 242.332 303.807 241.618 304.707 240.719C305.607 239.819 306.321 238.751 306.808 237.576C307.295 236.4 307.546 235.14 307.546 233.868C307.545 231.299 306.525 228.836 304.708 227.02C302.892 225.203 300.429 224.183 297.86 224.182C295.291 224.183 292.828 225.203 291.012 227.02C289.195 228.836 288.175 231.299 288.174 233.868C288.174 236.436 289.194 238.899 291.009 240.715C292.825 242.532 295.287 243.553 297.855 243.555Z" fill="#0B1157"/>
<path d="M343.916 243.959C346.598 243.959 349.17 242.893 351.066 240.997C352.962 239.101 354.028 236.529 354.028 233.847C354.028 231.165 352.962 228.593 351.066 226.697C349.17 224.801 346.598 223.735 343.916 223.735C341.234 223.735 338.662 224.801 336.766 226.697C334.87 228.593 333.804 231.165 333.804 233.847C333.804 236.529 334.87 239.101 336.766 240.997C338.662 242.893 341.234 243.959 343.916 243.959Z" fill="#0B1157"/>
<path d="M389.984 243.657C392.581 243.655 395.071 242.623 396.908 240.787C398.744 238.95 399.776 236.46 399.778 233.863C399.777 231.266 398.745 228.776 396.908 226.94C395.072 225.104 392.581 224.073 389.984 224.073C387.388 224.073 384.897 225.104 383.061 226.94C381.225 228.776 380.194 231.267 380.194 233.863C380.194 236.46 381.225 238.951 383.061 240.787C384.897 242.624 387.387 243.656 389.984 243.657Z" fill="#0B1157"/>
<path d="M436 242.644C437.146 242.644 438.281 242.418 439.34 241.98C440.399 241.541 441.361 240.898 442.172 240.088C442.982 239.277 443.625 238.315 444.064 237.256C444.502 236.197 444.728 235.062 444.728 233.916C444.727 231.601 443.808 229.382 442.171 227.745C440.534 226.108 438.315 225.189 436 225.188C433.685 225.189 431.466 226.108 429.829 227.745C428.192 229.382 427.273 231.601 427.272 233.916C427.272 236.231 428.192 238.451 429.828 240.088C431.465 241.724 433.685 242.644 436 242.644Z" fill="#0B1157"/>
<path d="M481.937 241.329C482.902 241.329 483.857 241.139 484.749 240.77C485.64 240.401 486.45 239.859 487.132 239.177C487.814 238.495 488.355 237.684 488.724 236.793C489.093 235.901 489.283 234.946 489.282 233.981C489.281 232.033 488.507 230.166 487.13 228.789C485.753 227.412 483.886 226.638 481.938 226.637C479.99 226.637 478.123 227.411 476.745 228.788C475.368 230.166 474.594 232.033 474.593 233.981C474.592 234.946 474.782 235.901 475.151 236.793C475.52 237.684 476.061 238.494 476.743 239.177C477.425 239.859 478.234 240.4 479.126 240.77C480.017 241.139 480.972 241.329 481.937 241.329Z" fill="#0B1157"/>
<path d="M527.792 239.914C528.561 239.914 529.322 239.763 530.032 239.469C530.742 239.175 531.388 238.744 531.931 238.2C532.475 237.657 532.906 237.011 533.2 236.301C533.494 235.591 533.645 234.83 533.645 234.061C533.645 232.509 533.028 231.02 531.931 229.922C530.833 228.825 529.344 228.208 527.792 228.208C526.24 228.209 524.751 228.825 523.654 229.923C522.556 231.02 521.94 232.509 521.939 234.061C521.939 235.613 522.556 237.102 523.653 238.2C524.751 239.297 526.24 239.914 527.792 239.914Z" fill="#0B1157"/>
<path d="M573.545 238.291C574.091 238.292 574.631 238.185 575.135 237.977C575.64 237.768 576.098 237.463 576.484 237.077C576.87 236.691 577.176 236.233 577.385 235.729C577.594 235.225 577.701 234.685 577.701 234.139C577.701 233.038 577.263 231.983 576.485 231.204C575.706 230.426 574.651 229.988 573.55 229.988C572.449 229.988 571.393 230.426 570.615 231.204C569.837 231.983 569.399 233.038 569.399 234.139C569.398 235.239 569.835 236.295 570.612 237.073C571.39 237.852 572.445 238.29 573.545 238.291Z" fill="#0B1157"/>
<path d="M633.738 236.773C634.074 236.773 634.406 236.708 634.717 236.579C635.027 236.451 635.309 236.263 635.547 236.026C635.785 235.789 635.973 235.507 636.102 235.197C636.231 234.887 636.298 234.555 636.298 234.219C636.298 233.883 636.232 233.55 636.104 233.24C635.975 232.929 635.786 232.647 635.549 232.41C635.311 232.172 635.028 231.984 634.718 231.856C634.407 231.728 634.074 231.662 633.738 231.663C633.403 231.663 633.071 231.729 632.761 231.858C632.451 231.986 632.17 232.175 631.933 232.412C631.696 232.65 631.508 232.931 631.381 233.241C631.253 233.551 631.187 233.884 631.188 234.219C631.188 234.896 631.457 235.545 631.935 236.024C632.413 236.502 633.061 236.772 633.738 236.773Z" fill="#0B1157"/>
<path d="M672.124 235.147C672.236 235.147 672.346 235.125 672.45 235.082C672.553 235.04 672.647 234.977 672.726 234.898C672.805 234.819 672.868 234.725 672.91 234.622C672.953 234.519 672.975 234.408 672.975 234.296C672.975 234.184 672.953 234.073 672.91 233.97C672.868 233.867 672.805 233.773 672.726 233.694C672.647 233.615 672.553 233.552 672.45 233.51C672.346 233.467 672.236 233.445 672.124 233.445C672.012 233.445 671.901 233.467 671.798 233.51C671.695 233.552 671.601 233.615 671.522 233.694C671.443 233.773 671.38 233.867 671.337 233.97C671.295 234.073 671.273 234.184 671.273 234.296C671.273 234.408 671.295 234.519 671.337 234.622C671.38 234.725 671.443 234.819 671.522 234.898C671.601 234.977 671.695 235.04 671.798 235.082C671.901 235.125 672.012 235.147 672.124 235.147Z" fill="#0B1157"/>
<path d="M0.319 278.447C0.495179 278.447 0.638 278.304 0.638 278.128C0.638 277.952 0.495179 277.809 0.319 277.809C0.142821 277.809 0 277.952 0 278.128C0 278.304 0.142821 278.447 0.319 278.447Z" fill="#0B1157"/>
<path d="M38.7 279.999C38.9518 279.999 39.2011 279.95 39.4338 279.853C39.6664 279.757 39.8778 279.616 40.0558 279.438C40.2338 279.26 40.375 279.048 40.4713 278.816C40.5676 278.583 40.6171 278.334 40.617 278.082C40.6171 277.83 40.5676 277.581 40.4713 277.348C40.375 277.116 40.2338 276.904 40.0558 276.726C39.8778 276.548 39.6664 276.407 39.4338 276.311C39.2011 276.214 38.9518 276.165 38.7 276.165C38.1922 276.166 37.7055 276.368 37.3468 276.728C36.9881 277.087 36.7867 277.574 36.787 278.082C36.7867 278.59 36.9881 279.077 37.3468 279.436C37.7055 279.796 38.1922 279.998 38.7 279.999Z" fill="#0B1157"/>
<path d="M77.085 281.757C79.1422 281.757 80.81 280.089 80.81 278.032C80.81 275.975 79.1422 274.307 77.085 274.307C75.0277 274.307 73.36 275.975 73.36 278.032C73.36 280.089 75.0277 281.757 77.085 281.757Z" fill="#0B1157"/>
<path d="M137.164 283.41C137.877 283.41 138.583 283.27 139.242 282.997C139.901 282.725 140.5 282.325 141.004 281.821C141.508 281.317 141.908 280.718 142.181 280.06C142.454 279.401 142.595 278.695 142.595 277.982C142.594 276.542 142.022 275.161 141.003 274.144C139.985 273.126 138.604 272.554 137.164 272.554C135.725 272.554 134.344 273.127 133.326 274.144C132.309 275.162 131.737 276.543 131.736 277.982C131.736 279.422 132.308 280.802 133.326 281.82C133.83 282.324 134.428 282.724 135.087 282.997C135.745 283.27 136.451 283.41 137.164 283.41Z" fill="#0B1157"/>
<path d="M182.949 285.066C184.841 285.066 186.655 284.314 187.993 282.977C189.33 281.639 190.082 279.825 190.082 277.933C190.081 276.042 189.33 274.228 187.992 272.891C186.654 271.554 184.84 270.803 182.949 270.803C181.058 270.803 179.245 271.555 177.908 272.892C176.571 274.229 175.819 276.042 175.819 277.933C175.819 279.824 176.57 281.638 177.907 282.976C179.244 284.314 181.058 285.065 182.949 285.066Z" fill="#0B1157"/>
<path d="M228.823 286.717C233.702 286.717 237.657 282.762 237.657 277.883C237.657 273.004 233.702 269.049 228.823 269.049C223.944 269.049 219.989 273.004 219.989 277.883C219.989 282.762 223.944 286.717 228.823 286.717Z" fill="#0B1157"/>
<path d="M274.787 288.264C276.157 288.264 277.514 287.995 278.779 287.471C280.045 286.947 281.195 286.178 282.164 285.21C283.133 284.241 283.902 283.092 284.426 281.826C284.951 280.56 285.221 279.204 285.221 277.834C285.221 276.464 284.951 275.108 284.426 273.842C283.902 272.576 283.133 271.427 282.164 270.458C281.195 269.49 280.045 268.721 278.779 268.197C277.514 267.673 276.157 267.404 274.787 267.404C272.021 267.404 269.368 268.503 267.412 270.459C265.456 272.415 264.357 275.068 264.357 277.834C264.357 280.6 265.456 283.253 267.412 285.209C269.368 287.165 272.021 288.264 274.787 288.264Z" fill="#0B1157"/>
<path d="M320.85 289.402C322.373 289.402 323.882 289.102 325.289 288.519C326.697 287.936 327.975 287.082 329.052 286.004C330.13 284.927 330.984 283.649 331.567 282.241C332.15 280.834 332.45 279.325 332.45 277.802C332.45 276.279 332.15 274.77 331.567 273.363C330.984 271.956 330.13 270.677 329.052 269.6C327.975 268.522 326.697 267.668 325.289 267.085C323.882 266.502 322.373 266.202 320.85 266.202C317.773 266.202 314.823 267.424 312.648 269.6C310.472 271.775 309.25 274.726 309.25 277.802C309.25 280.879 310.472 283.829 312.648 286.004C314.823 288.18 317.773 289.402 320.85 289.402Z" fill="#0B1157"/>
<path d="M366.965 289.503C368.503 289.503 370.025 289.201 371.446 288.613C372.866 288.025 374.157 287.162 375.245 286.075C376.332 284.988 377.195 283.697 377.783 282.277C378.371 280.856 378.674 279.334 378.674 277.796C378.674 276.258 378.371 274.736 377.783 273.315C377.195 271.895 376.332 270.604 375.245 269.517C374.157 268.43 372.866 267.567 371.446 266.979C370.025 266.391 368.503 266.089 366.965 266.089C365.427 266.089 363.905 266.391 362.484 266.979C361.063 267.567 359.772 268.43 358.685 269.517C357.598 270.604 356.735 271.895 356.146 273.315C355.558 274.736 355.255 276.258 355.255 277.796C355.255 279.334 355.558 280.856 356.146 282.277C356.735 283.697 357.598 284.988 358.685 286.075C359.772 287.162 361.063 288.025 362.484 288.613C363.905 289.201 365.427 289.503 366.965 289.503Z" fill="#0B1157"/>
<path d="M413.043 288.369C414.427 288.369 415.797 288.096 417.075 287.566C418.353 287.037 419.514 286.26 420.492 285.282C421.471 284.303 422.246 283.141 422.776 281.863C423.305 280.585 423.577 279.215 423.577 277.831C423.577 275.037 422.468 272.357 420.492 270.381C418.517 268.405 415.837 267.295 413.043 267.294C411.659 267.294 410.289 267.566 409.01 268.096C407.732 268.625 406.57 269.401 405.592 270.38C404.613 271.358 403.837 272.52 403.308 273.799C402.778 275.077 402.506 276.447 402.506 277.831C402.506 279.215 402.778 280.585 403.308 281.864C403.837 283.142 404.613 284.304 405.592 285.283C406.57 286.261 407.732 287.038 409.01 287.567C410.289 288.097 411.659 288.369 413.043 288.369Z" fill="#0B1157"/>
<path d="M459.04 286.923C460.228 286.923 461.404 286.689 462.502 286.235C463.599 285.78 464.597 285.114 465.437 284.274C466.277 283.434 466.943 282.436 467.398 281.339C467.852 280.241 468.086 279.065 468.086 277.877C468.086 275.478 467.133 273.177 465.436 271.481C463.74 269.784 461.439 268.831 459.04 268.831C457.852 268.831 456.675 269.065 455.577 269.519C454.479 269.973 453.482 270.64 452.642 271.48C451.801 272.32 451.134 273.317 450.679 274.415C450.225 275.512 449.99 276.689 449.99 277.877C449.99 279.065 450.224 280.242 450.679 281.34C451.134 282.437 451.8 283.435 452.641 284.275C453.481 285.115 454.479 285.781 455.577 286.236C456.675 286.69 457.852 286.924 459.04 286.923Z" fill="#0B1157"/>
<path d="M504.939 285.271C505.903 285.271 506.858 285.081 507.749 284.712C508.639 284.343 509.449 283.802 510.131 283.12C510.812 282.438 511.353 281.629 511.722 280.738C512.091 279.847 512.28 278.892 512.28 277.928C512.28 275.981 511.507 274.113 510.13 272.736C508.753 271.359 506.886 270.585 504.939 270.584C502.991 270.584 501.123 271.358 499.746 272.735C498.369 274.112 497.595 275.98 497.595 277.928C497.595 278.892 497.785 279.847 498.154 280.738C498.523 281.629 499.064 282.439 499.746 283.121C500.428 283.803 501.237 284.344 502.128 284.713C503.02 285.082 503.975 285.271 504.939 285.271Z" fill="#0B1157"/>
<path d="M550.75 283.618C553.865 283.618 556.391 281.092 556.391 277.977C556.391 274.862 553.865 272.336 550.75 272.336C547.635 272.336 545.109 274.862 545.109 277.977C545.109 281.092 547.635 283.618 550.75 283.618Z" fill="#0B1157"/>
<path d="M614.551 281.862C615.054 281.862 615.553 281.763 616.018 281.571C616.483 281.378 616.906 281.096 617.262 280.74C617.618 280.384 617.901 279.961 618.093 279.496C618.286 279.031 618.385 278.532 618.385 278.029C618.385 277.013 617.981 276.039 617.263 275.321C616.545 274.603 615.571 274.199 614.555 274.199C613.539 274.199 612.564 274.602 611.845 275.32C611.127 276.039 610.722 277.013 610.722 278.029C610.722 279.045 611.125 280.019 611.843 280.738C612.561 281.457 613.535 281.861 614.551 281.862Z" fill="#0B1157"/>
<path d="M652.934 280.209C653.499 280.208 654.04 279.983 654.439 279.584C654.838 279.184 655.062 278.643 655.062 278.078C655.062 277.514 654.838 276.972 654.439 276.573C654.04 276.174 653.498 275.95 652.934 275.95C652.654 275.95 652.377 276.005 652.119 276.111C651.86 276.218 651.625 276.375 651.428 276.573C651.23 276.77 651.073 277.005 650.966 277.263C650.858 277.521 650.803 277.798 650.803 278.078C650.803 278.643 651.028 279.185 651.427 279.585C651.827 279.984 652.369 280.209 652.934 280.209Z" fill="#0B1157"/>
<path d="M691.317 278.55C691.373 278.55 691.428 278.539 691.48 278.518C691.532 278.496 691.579 278.465 691.619 278.426C691.658 278.386 691.689 278.339 691.711 278.287C691.732 278.235 691.743 278.18 691.743 278.124C691.743 278.068 691.732 278.013 691.711 277.961C691.689 277.909 691.658 277.862 691.619 277.822C691.579 277.783 691.532 277.752 691.48 277.73C691.428 277.709 691.373 277.698 691.317 277.698C691.261 277.698 691.206 277.709 691.154 277.73C691.102 277.752 691.055 277.783 691.015 277.822C690.976 277.862 690.945 277.909 690.923 277.961C690.902 278.013 690.891 278.068 690.891 278.124C690.891 278.18 690.902 278.235 690.923 278.287C690.945 278.339 690.976 278.386 691.015 278.426C691.055 278.465 691.102 278.496 691.154 278.518C691.206 278.539 691.261 278.55 691.317 278.55Z" fill="#0B1157"/>
<path d="M19.511 323.099C19.665 323.099 19.8175 323.068 19.9597 323.009C20.1018 322.95 20.2309 322.863 20.3395 322.754C20.4481 322.644 20.5341 322.515 20.5925 322.372C20.6509 322.23 20.6807 322.077 20.68 321.923C20.6801 321.769 20.65 321.617 20.5913 321.476C20.5326 321.334 20.4465 321.205 20.3379 321.096C20.2293 320.988 20.1004 320.901 19.9585 320.843C19.8166 320.784 19.6646 320.754 19.511 320.754C19.3572 320.754 19.2049 320.784 19.0627 320.842C18.9206 320.901 18.7913 320.987 18.6824 321.096C18.5735 321.204 18.487 321.333 18.4279 321.475C18.3688 321.617 18.3383 321.769 18.338 321.923C18.3378 322.077 18.3679 322.23 18.4267 322.373C18.4855 322.515 18.5719 322.645 18.6808 322.754C18.7897 322.863 18.9191 322.95 19.0616 323.009C19.204 323.068 19.3568 323.099 19.511 323.099Z" fill="#0B1157"/>
<path d="M57.893 324.892C58.2845 324.892 58.6721 324.815 59.0337 324.665C59.3953 324.515 59.7239 324.295 60.0005 324.018C60.2772 323.741 60.4966 323.413 60.6461 323.051C60.7956 322.689 60.8724 322.301 60.872 321.91C60.8724 321.519 60.7956 321.131 60.6461 320.77C60.4965 320.408 60.2771 320.079 60.0004 319.803C59.7237 319.526 59.3951 319.307 59.0335 319.157C58.6719 319.007 58.2843 318.931 57.893 318.931C57.5015 318.931 57.1139 319.007 56.7521 319.157C56.3903 319.306 56.0615 319.526 55.7846 319.802C55.5077 320.079 55.288 320.408 55.1381 320.769C54.9882 321.131 54.911 321.519 54.911 321.91C54.911 322.701 55.2252 323.459 55.7844 324.019C56.3436 324.578 57.1021 324.892 57.893 324.892Z" fill="#0B1157"/>
<path d="M96.276 326.684C96.905 326.684 97.5279 326.56 98.109 326.319C98.6901 326.078 99.218 325.725 99.6627 325.281C100.107 324.836 100.46 324.307 100.7 323.726C100.941 323.145 101.064 322.522 101.064 321.893C101.064 321.264 100.94 320.642 100.7 320.061C100.459 319.48 100.107 318.952 99.6619 318.507C99.2173 318.062 98.6894 317.71 98.1084 317.469C97.5275 317.229 96.9048 317.105 96.276 317.105C95.0058 317.105 93.7875 317.609 92.889 318.507C91.9905 319.405 91.4855 320.623 91.485 321.893C91.485 323.164 91.9898 324.382 92.8882 325.281C93.3331 325.726 93.8613 326.079 94.4425 326.319C95.0238 326.56 95.6468 326.684 96.276 326.684Z" fill="#0B1157"/>
<path d="M160.012 328.475C163.656 328.475 166.611 325.521 166.611 321.876C166.611 318.231 163.656 315.277 160.012 315.277C156.367 315.277 153.413 318.231 153.413 321.876C153.413 325.521 156.367 328.475 160.012 328.475Z" fill="#0B1157"/>
<path d="M205.849 330.161C206.939 330.161 208.018 329.946 209.025 329.529C210.032 329.112 210.947 328.501 211.718 327.73C212.489 326.959 213.1 326.044 213.517 325.037C213.934 324.03 214.149 322.951 214.149 321.861C214.149 319.66 213.275 317.549 211.718 315.992C210.161 314.435 208.05 313.561 205.849 313.561C203.648 313.561 201.537 314.435 199.98 315.992C198.423 317.549 197.549 319.66 197.549 321.861C197.549 324.062 198.423 326.173 199.98 327.73C201.537 329.287 203.648 330.161 205.849 330.161Z" fill="#0B1157"/>
<path d="M251.766 331.953C257.35 331.953 261.877 327.426 261.877 321.842C261.877 316.258 257.35 311.731 251.766 311.731C246.182 311.731 241.655 316.258 241.655 321.842C241.655 327.426 246.182 331.953 251.766 331.953Z" fill="#0B1157"/>
<path d="M297.782 333.744C300.943 333.743 303.975 332.487 306.21 330.251C308.445 328.016 309.701 324.984 309.701 321.823C309.701 318.662 308.445 315.63 306.21 313.395C303.975 311.159 300.943 309.903 297.782 309.902C296.216 309.902 294.666 310.21 293.22 310.809C291.773 311.408 290.459 312.286 289.352 313.393C288.244 314.5 287.366 315.814 286.767 317.261C286.168 318.707 285.859 320.257 285.859 321.823C285.859 323.389 286.168 324.939 286.767 326.385C287.366 327.832 288.244 329.146 289.352 330.253C290.459 331.36 291.773 332.238 293.22 332.837C294.666 333.436 296.216 333.744 297.782 333.744Z" fill="#0B1157"/>
<path d="M343.896 334.902C347.368 334.902 350.697 333.523 353.152 331.068C355.607 328.613 356.986 325.284 356.986 321.812C356.986 320.093 356.648 318.391 355.99 316.802C355.332 315.214 354.368 313.771 353.152 312.555C351.937 311.34 350.494 310.375 348.906 309.718C347.317 309.06 345.615 308.721 343.896 308.721C342.177 308.721 340.475 309.059 338.886 309.717C337.298 310.375 335.855 311.339 334.639 312.555C333.423 313.771 332.459 315.214 331.801 316.802C331.143 318.39 330.805 320.093 330.805 321.812C330.805 323.531 331.144 325.233 331.802 326.822C332.459 328.41 333.424 329.853 334.639 331.068C335.855 332.284 337.298 333.248 338.886 333.906C340.475 334.564 342.177 334.902 343.896 334.902Z" fill="#0B1157"/>
<path d="M390.029 333.85C396.671 333.85 402.056 328.465 402.056 321.823C402.056 315.181 396.671 309.796 390.029 309.796C383.387 309.796 378.002 315.181 378.002 321.823C378.002 328.465 383.387 333.85 390.029 333.85Z" fill="#0B1157"/>
<path d="M436.075 332.164C441.777 332.164 446.399 327.542 446.399 321.84C446.399 316.138 441.777 311.516 436.075 311.516C430.373 311.516 425.751 316.138 425.751 321.84C425.751 327.542 430.373 332.164 436.075 332.164Z" fill="#0B1157"/>
<path d="M482.023 330.373C486.726 330.373 490.538 326.561 490.538 321.858C490.538 317.155 486.726 313.343 482.023 313.343C477.32 313.343 473.508 317.155 473.508 321.858C473.508 326.561 477.32 330.373 482.023 330.373Z" fill="#0B1157"/>
<path d="M527.875 328.582C528.756 328.582 529.627 328.408 530.441 328.071C531.254 327.734 531.993 327.24 532.615 326.617C533.238 325.994 533.731 325.254 534.067 324.44C534.404 323.627 534.576 322.755 534.575 321.874C534.575 320.097 533.869 318.393 532.613 317.136C531.356 315.88 529.652 315.174 527.875 315.174C526.099 315.176 524.395 315.882 523.139 317.138C521.883 318.394 521.177 320.098 521.175 321.874C521.175 323.652 521.88 325.357 523.137 326.615C524.393 327.873 526.097 328.58 527.875 328.582Z" fill="#0B1157"/>
<path d="M573.636 326.787C574.28 326.788 574.917 326.662 575.512 326.416C576.107 326.17 576.648 325.809 577.103 325.354C577.558 324.899 577.919 324.358 578.165 323.763C578.411 323.168 578.537 322.531 578.536 321.887C578.536 320.587 578.02 319.341 577.101 318.422C576.182 317.503 574.936 316.987 573.636 316.987C572.336 316.987 571.09 317.503 570.171 318.422C569.252 319.341 568.736 320.587 568.736 321.887C568.735 322.531 568.861 323.168 569.107 323.763C569.353 324.358 569.714 324.899 570.169 325.354C570.624 325.809 571.165 326.17 571.76 326.416C572.355 326.662 572.992 326.788 573.636 326.787Z" fill="#0B1157"/>
<path d="M633.742 325.101C635.506 325.101 636.935 323.671 636.935 321.908C636.935 320.145 635.506 318.715 633.742 318.715C631.979 318.715 630.549 320.145 630.549 321.908C630.549 323.671 631.979 325.101 633.742 325.101Z" fill="#0B1157"/>
<path d="M672.124 323.309C672.306 323.309 672.486 323.273 672.654 323.204C672.822 323.134 672.974 323.032 673.103 322.904C673.231 322.775 673.333 322.623 673.403 322.455C673.472 322.287 673.508 322.107 673.508 321.925C673.508 321.743 673.472 321.563 673.403 321.395C673.333 321.227 673.231 321.075 673.103 320.946C672.974 320.818 672.822 320.716 672.654 320.646C672.486 320.577 672.306 320.541 672.124 320.541C671.942 320.541 671.762 320.577 671.594 320.646C671.426 320.716 671.274 320.818 671.145 320.946C671.017 321.075 670.915 321.227 670.845 321.395C670.776 321.563 670.74 321.743 670.74 321.925C670.74 322.107 670.776 322.287 670.845 322.455C670.915 322.623 671.017 322.775 671.145 322.904C671.274 323.032 671.426 323.134 671.594 323.204C671.762 323.273 671.942 323.309 672.124 323.309Z" fill="#0B1157"/>
<path d="M0.319 366.06C0.495179 366.06 0.638 365.917 0.638 365.741C0.638 365.565 0.495179 365.422 0.319 365.422C0.142821 365.422 0 365.565 0 365.741C0 365.917 0.142821 366.06 0.319 366.06Z" fill="#0B1157"/>
<path d="M38.7 367.673C38.9517 367.673 39.2009 367.624 39.4335 367.527C39.6661 367.431 39.8774 367.29 40.0555 367.112C40.2335 366.934 40.3747 366.723 40.471 366.49C40.5674 366.258 40.617 366.009 40.617 365.757C40.6171 365.505 40.5676 365.256 40.4713 365.023C40.375 364.791 40.2338 364.579 40.0558 364.401C39.8778 364.223 39.6664 364.082 39.4338 363.986C39.2011 363.889 38.9518 363.84 38.7 363.84C38.1922 363.841 37.7055 364.043 37.3468 364.403C36.9881 364.762 36.7867 365.249 36.787 365.757C36.787 366.265 36.9884 366.751 37.3471 367.111C37.7058 367.47 38.1924 367.672 38.7 367.673Z" fill="#0B1157"/>
<path d="M77.085 369.5C79.1422 369.5 80.81 367.832 80.81 365.775C80.81 363.718 79.1422 362.05 77.085 362.05C75.0277 362.05 73.36 363.718 73.36 365.775C73.36 367.832 75.0277 369.5 77.085 369.5Z" fill="#0B1157"/>
<path d="M137.166 371.22C140.164 371.22 142.594 368.79 142.594 365.792C142.594 362.794 140.164 360.364 137.166 360.364C134.168 360.364 131.738 362.794 131.738 365.792C131.738 368.79 134.168 371.22 137.166 371.22Z" fill="#0B1157"/>
<path d="M182.94 373.047C186.937 373.047 190.177 369.807 190.177 365.81C190.177 361.813 186.937 358.573 182.94 358.573C178.943 358.573 175.703 361.813 175.703 365.81C175.703 369.807 178.943 373.047 182.94 373.047Z" fill="#0B1157"/>
<path d="M228.813 374.77C229.987 374.77 231.151 374.539 232.236 374.09C233.321 373.64 234.307 372.982 235.137 372.151C235.968 371.321 236.626 370.335 237.076 369.25C237.525 368.165 237.756 367.001 237.756 365.827C237.756 364.653 237.524 363.49 237.075 362.405C236.625 361.321 235.967 360.335 235.136 359.505C234.306 358.675 233.32 358.017 232.235 357.568C231.15 357.119 229.987 356.888 228.813 356.888C226.443 356.889 224.171 357.832 222.495 359.508C220.82 361.184 219.878 363.457 219.878 365.827C219.877 368.198 220.818 370.472 222.494 372.149C224.169 373.826 226.442 374.769 228.813 374.77Z" fill="#0B1157"/>
<path d="M274.782 376.385C276.866 376.386 278.903 375.768 280.636 374.611C282.369 373.454 283.72 371.809 284.519 369.884C285.317 367.959 285.526 365.84 285.12 363.796C284.714 361.752 283.712 359.874 282.239 358.4C280.766 356.926 278.889 355.922 276.845 355.514C274.801 355.107 272.683 355.315 270.757 356.111C268.831 356.908 267.185 358.258 266.026 359.99C264.868 361.722 264.249 363.759 264.248 365.843C264.247 367.227 264.519 368.598 265.048 369.876C265.577 371.155 266.353 372.317 267.331 373.296C268.309 374.275 269.471 375.052 270.749 375.582C272.028 376.112 273.398 376.385 274.782 376.385Z" fill="#0B1157"/>
<path d="M320.845 377.67C323.181 377.669 325.465 376.976 327.408 375.678C329.35 374.379 330.864 372.534 331.758 370.375C332.651 368.216 332.885 365.841 332.429 363.549C331.972 361.258 330.847 359.153 329.195 357.501C327.542 355.849 325.437 354.724 323.146 354.269C320.854 353.813 318.479 354.047 316.32 354.942C314.162 355.836 312.317 357.35 311.019 359.293C309.721 361.236 309.028 363.52 309.028 365.856C309.028 367.408 309.334 368.944 309.928 370.378C310.521 371.811 311.392 373.114 312.489 374.211C313.587 375.308 314.889 376.178 316.323 376.772C317.757 377.365 319.293 377.67 320.845 377.67Z" fill="#0B1157"/>
<path d="M366.966 377.78C373.55 377.78 378.887 372.443 378.887 365.859C378.887 359.275 373.55 353.938 366.966 353.938C360.382 353.938 355.045 359.275 355.045 365.859C355.045 372.443 360.382 377.78 366.966 377.78Z" fill="#0B1157"/>
<path d="M413.045 376.488C418.923 376.488 423.688 371.723 423.688 365.845C423.688 359.967 418.923 355.202 413.045 355.202C407.167 355.202 402.402 359.967 402.402 365.845C402.402 371.723 407.167 376.488 413.045 376.488Z" fill="#0B1157"/>
<path d="M459.038 374.876C464.034 374.876 468.085 370.826 468.085 365.829C468.085 360.832 464.034 356.782 459.038 356.782C454.041 356.782 449.991 360.832 449.991 365.829C449.991 370.826 454.041 374.876 459.038 374.876Z" fill="#0B1157"/>
<path d="M504.939 373.155C505.903 373.155 506.858 372.965 507.749 372.596C508.64 372.227 509.449 371.686 510.131 371.004C510.813 370.322 511.353 369.512 511.722 368.621C512.091 367.73 512.28 366.775 512.28 365.811C512.28 363.864 511.507 361.996 510.13 360.619C508.753 359.242 506.886 358.468 504.939 358.467C502.991 358.467 501.123 359.241 499.746 360.618C498.369 361.995 497.595 363.863 497.595 365.811C497.595 366.776 497.784 367.731 498.153 368.622C498.522 369.513 499.063 370.323 499.745 371.005C500.427 371.687 501.237 372.228 502.128 372.597C503.019 372.966 503.974 373.155 504.939 373.155Z" fill="#0B1157"/>
<path d="M550.75 371.435C553.865 371.435 556.391 368.909 556.391 365.794C556.391 362.679 553.865 360.153 550.75 360.153C547.635 360.153 545.109 362.679 545.109 365.794C545.109 368.909 547.635 371.435 550.75 371.435Z" fill="#0B1157"/>
<path d="M614.551 369.609C615.054 369.609 615.553 369.51 616.018 369.318C616.483 369.125 616.906 368.843 617.262 368.487C617.618 368.131 617.901 367.708 618.093 367.243C618.286 366.778 618.385 366.279 618.385 365.776C618.385 364.76 617.981 363.786 617.263 363.068C616.545 362.35 615.571 361.946 614.555 361.946C613.539 361.946 612.564 362.349 611.845 363.067C611.127 363.786 610.722 364.76 610.722 365.776C610.722 366.792 611.125 367.766 611.843 368.485C612.561 369.204 613.535 369.608 614.551 369.609Z" fill="#0B1157"/>
<path d="M652.933 367.888C654.109 367.888 655.062 366.935 655.062 365.759C655.062 364.583 654.109 363.63 652.933 363.63C651.757 363.63 650.804 364.583 650.804 365.759C650.804 366.935 651.757 367.888 652.933 367.888Z" fill="#0B1157"/>
<path d="M691.316 366.169C691.551 366.169 691.742 365.978 691.742 365.743C691.742 365.508 691.551 365.317 691.316 365.317C691.081 365.317 690.89 365.508 690.89 365.743C690.89 365.978 691.081 366.169 691.316 366.169Z" fill="#0B1157"/>
<path d="M19.511 410.307C19.7086 410.307 19.898 410.228 20.0375 410.087C20.177 409.947 20.2552 409.758 20.255 409.56C20.2551 409.462 20.2359 409.365 20.1986 409.275C20.1613 409.185 20.1065 409.103 20.0374 409.034C19.9682 408.965 19.8862 408.91 19.7958 408.872C19.7055 408.835 19.6087 408.816 19.511 408.816C19.4132 408.816 19.3164 408.835 19.2261 408.872C19.1358 408.91 19.0537 408.965 18.9846 409.034C18.9155 409.103 18.8607 409.185 18.8233 409.275C18.786 409.365 18.7668 409.462 18.767 409.56C18.7667 409.758 18.8449 409.947 18.9844 410.087C19.1239 410.228 19.3133 410.307 19.511 410.307Z" fill="#0B1157"/>
<path d="M57.893 412.057C58.2147 412.057 58.5334 411.994 58.8307 411.871C59.128 411.748 59.3981 411.567 59.6257 411.34C59.8532 411.112 60.0337 410.842 60.1567 410.545C60.2798 410.247 60.3431 409.929 60.343 409.607C60.343 409.286 60.2796 408.967 60.1565 408.67C60.0334 408.373 59.8529 408.104 59.6255 407.876C59.398 407.649 59.128 407.469 58.8309 407.346C58.5338 407.224 58.2154 407.161 57.894 407.161C57.5724 407.16 57.2539 407.223 56.9567 407.346C56.6595 407.469 56.3894 407.649 56.1618 407.876C55.9342 408.103 55.7537 408.373 55.6305 408.67C55.5074 408.967 55.444 409.285 55.444 409.607C55.4438 409.929 55.5071 410.247 55.6301 410.545C55.7531 410.842 55.9335 411.112 56.1609 411.339C56.3883 411.567 56.6584 411.747 56.9555 411.87C57.2527 411.994 57.5713 412.057 57.893 412.057Z" fill="#0B1157"/>
<path d="M96.276 413.699C98.5094 413.699 100.32 411.888 100.32 409.655C100.32 407.422 98.5094 405.611 96.276 405.611C94.0426 405.611 92.232 407.422 92.232 409.655C92.232 411.888 94.0426 413.699 96.276 413.699Z" fill="#0B1157"/>
<path d="M160.106 415.458C160.861 415.458 161.609 415.309 162.306 415.019C163.004 414.73 163.637 414.306 164.171 413.772C164.705 413.238 165.128 412.604 165.416 411.906C165.705 411.208 165.853 410.46 165.852 409.705C165.852 408.181 165.246 406.72 164.169 405.642C163.091 404.564 161.63 403.959 160.106 403.958C159.351 403.958 158.604 404.106 157.907 404.395C157.21 404.684 156.576 405.107 156.043 405.641C155.509 406.174 155.086 406.808 154.797 407.505C154.508 408.202 154.36 408.949 154.36 409.704C154.359 410.459 154.507 411.207 154.795 411.905C155.083 412.603 155.506 413.238 156.04 413.772C156.574 414.307 157.208 414.731 157.905 415.02C158.603 415.309 159.351 415.458 160.106 415.458Z" fill="#0B1157"/>
<path d="M205.93 417.097C207.382 417.097 208.802 416.666 210.01 415.859C211.218 415.052 212.159 413.906 212.715 412.564C213.271 411.222 213.416 409.745 213.133 408.321C212.85 406.896 212.15 405.587 211.123 404.56C210.096 403.533 208.788 402.834 207.363 402.55C205.939 402.267 204.462 402.412 203.12 402.968C201.778 403.523 200.631 404.465 199.824 405.672C199.017 406.88 198.586 408.3 198.586 409.752C198.586 410.717 198.776 411.672 199.145 412.563C199.514 413.454 200.055 414.264 200.737 414.946C201.419 415.628 202.228 416.169 203.119 416.538C204.01 416.907 204.965 417.097 205.93 417.097Z" fill="#0B1157"/>
<path d="M251.849 418.527C253.575 418.526 255.262 418.013 256.696 417.054C258.131 416.095 259.249 414.731 259.909 413.137C260.569 411.542 260.741 409.788 260.404 408.095C260.067 406.402 259.236 404.848 258.016 403.627C256.795 402.407 255.241 401.576 253.548 401.239C251.855 400.902 250.101 401.074 248.506 401.734C246.912 402.394 245.548 403.512 244.589 404.947C243.63 406.381 243.117 408.068 243.116 409.794C243.115 410.941 243.341 412.077 243.779 413.137C244.218 414.197 244.861 415.16 245.672 415.971C246.483 416.782 247.446 417.425 248.506 417.864C249.566 418.302 250.702 418.528 251.849 418.527Z" fill="#0B1157"/>
<path d="M297.852 419.62C299.789 419.62 301.682 419.047 303.292 417.971C304.903 416.895 306.158 415.366 306.9 413.577C307.641 411.788 307.836 409.819 307.458 407.92C307.081 406.02 306.149 404.275 304.779 402.905C303.41 401.536 301.666 400.603 299.766 400.225C297.867 399.846 295.898 400.04 294.109 400.781C292.319 401.521 290.79 402.776 289.713 404.386C288.637 405.996 288.062 407.889 288.062 409.826C288.062 411.112 288.315 412.385 288.806 413.574C289.298 414.762 290.019 415.841 290.928 416.751C291.837 417.66 292.917 418.382 294.105 418.874C295.293 419.366 296.566 419.62 297.852 419.62Z" fill="#0B1157"/>
<path d="M343.914 420.169C345.956 420.169 347.952 419.564 349.651 418.43C351.349 417.296 352.672 415.684 353.454 413.797C354.236 411.911 354.441 409.835 354.043 407.832C353.645 405.829 352.662 403.989 351.218 402.545C349.775 401.1 347.935 400.117 345.932 399.718C343.929 399.319 341.853 399.523 339.967 400.304C338.08 401.085 336.467 402.408 335.332 404.106C334.197 405.804 333.591 407.8 333.591 409.842C333.591 412.58 334.678 415.207 336.614 417.143C338.55 419.08 341.176 420.168 343.914 420.169Z" fill="#0B1157"/>
<path d="M389.985 419.731C391.943 419.731 393.857 419.15 395.485 418.063C397.113 416.975 398.382 415.429 399.131 413.62C399.881 411.811 400.077 409.82 399.695 407.9C399.313 405.979 398.37 404.215 396.985 402.831C395.601 401.446 393.837 400.503 391.916 400.121C389.996 399.739 388.005 399.935 386.196 400.685C384.387 401.434 382.841 402.703 381.753 404.331C380.666 405.959 380.085 407.873 380.085 409.831C380.085 412.457 381.128 414.975 382.985 416.831C384.841 418.688 387.359 419.731 389.985 419.731Z" fill="#0B1157"/>
<path d="M436.005 418.632C440.884 418.632 444.839 414.677 444.839 409.798C444.839 404.919 440.884 400.964 436.005 400.964C431.126 400.964 427.171 404.919 427.171 409.798C427.171 414.677 431.126 418.632 436.005 418.632Z" fill="#0B1157"/>
<path d="M481.944 417.207C483.417 417.207 484.857 416.769 486.082 415.951C487.307 415.132 488.262 413.968 488.825 412.607C489.389 411.246 489.536 409.748 489.249 408.303C488.961 406.858 488.252 405.531 487.21 404.489C486.168 403.447 484.841 402.738 483.396 402.45C481.951 402.163 480.453 402.31 479.092 402.874C477.731 403.437 476.567 404.392 475.748 405.617C474.93 406.842 474.492 408.282 474.492 409.755C474.492 411.731 475.277 413.627 476.675 415.024C478.072 416.422 479.968 417.207 481.944 417.207Z" fill="#0B1157"/>
<path d="M527.792 415.561C528.95 415.561 530.081 415.218 531.044 414.575C532.006 413.931 532.756 413.017 533.199 411.948C533.642 410.878 533.758 409.701 533.533 408.566C533.307 407.431 532.749 406.388 531.931 405.569C531.112 404.751 530.069 404.193 528.934 403.967C527.799 403.742 526.622 403.858 525.552 404.301C524.483 404.744 523.569 405.494 522.925 406.456C522.282 407.419 521.939 408.55 521.939 409.708C521.939 410.477 522.09 411.238 522.384 411.948C522.678 412.658 523.109 413.304 523.653 413.847C524.196 414.391 524.842 414.822 525.552 415.116C526.262 415.41 527.023 415.561 527.792 415.561Z" fill="#0B1157"/>
<path d="M573.559 413.92C574.401 413.92 575.224 413.67 575.923 413.202C576.623 412.734 577.168 412.069 577.49 411.291C577.812 410.513 577.896 409.658 577.732 408.832C577.568 408.006 577.162 407.248 576.567 406.653C575.972 406.058 575.214 405.652 574.388 405.488C573.562 405.324 572.707 405.408 571.929 405.73C571.151 406.052 570.486 406.597 570.018 407.297C569.55 407.996 569.3 408.819 569.3 409.661C569.3 410.22 569.41 410.774 569.624 411.291C569.838 411.808 570.152 412.277 570.547 412.673C570.943 413.068 571.412 413.382 571.929 413.596C572.446 413.81 573 413.92 573.559 413.92Z" fill="#0B1157"/>
<path d="M633.741 412.166C635.152 412.166 636.295 411.023 636.295 409.612C636.295 408.201 635.152 407.058 633.741 407.058C632.33 407.058 631.187 408.201 631.187 409.612C631.187 411.023 632.33 412.166 633.741 412.166Z" fill="#0B1157"/>
<path d="M672.124 410.413C672.292 410.413 672.457 410.363 672.597 410.27C672.737 410.176 672.846 410.043 672.91 409.888C672.975 409.732 672.991 409.561 672.959 409.396C672.926 409.231 672.845 409.079 672.726 408.96C672.607 408.841 672.455 408.76 672.29 408.727C672.125 408.695 671.954 408.711 671.798 408.776C671.643 408.84 671.51 408.949 671.416 409.089C671.323 409.229 671.273 409.394 671.273 409.562C671.273 409.674 671.295 409.785 671.337 409.888C671.38 409.991 671.443 410.085 671.522 410.164C671.601 410.243 671.695 410.306 671.798 410.348C671.901 410.391 672.012 410.413 672.124 410.413Z" fill="#0B1157"/>
<path d="M38.701 454.345C38.9551 454.345 39.1987 454.244 39.3784 454.064C39.558 453.885 39.659 453.641 39.659 453.387C39.659 453.133 39.558 452.889 39.3784 452.71C39.1987 452.53 38.9551 452.429 38.701 452.429C38.5753 452.429 38.4509 452.454 38.3348 452.502C38.2188 452.55 38.1133 452.621 38.0246 452.71C37.9359 452.799 37.8656 452.904 37.8178 453.021C37.77 453.137 37.7456 453.261 37.746 453.387C37.7456 453.513 37.77 453.637 37.8178 453.753C37.8656 453.87 37.9359 453.975 38.0246 454.064C38.1133 454.153 38.2188 454.224 38.3348 454.272C38.4509 454.32 38.5753 454.345 38.701 454.345Z" fill="#0B1157"/>
<path d="M77.083 456.017C77.7612 456.017 78.4116 455.748 78.8911 455.268C79.3706 454.789 79.64 454.138 79.64 453.46C79.6399 453.124 79.5736 452.792 79.445 452.482C79.3164 452.172 79.128 451.891 78.8906 451.654C78.6531 451.417 78.3712 451.229 78.0611 451.1C77.7509 450.972 77.4186 450.907 77.083 450.907C76.4059 450.907 75.7566 451.176 75.2778 451.655C74.799 452.134 74.53 452.783 74.53 453.46C74.5298 454.138 74.7985 454.787 75.2773 455.267C75.756 455.746 76.4055 456.016 77.083 456.017Z" fill="#0B1157"/>
<path d="M137.333 457.576C137.864 457.576 138.391 457.472 138.882 457.269C139.373 457.066 139.819 456.768 140.195 456.393C140.571 456.017 140.869 455.571 141.073 455.08C141.276 454.59 141.381 454.063 141.381 453.532C141.38 452.459 140.953 451.431 140.194 450.672C139.435 449.914 138.406 449.488 137.333 449.488C136.261 449.489 135.233 449.915 134.474 450.673C133.716 451.432 133.29 452.46 133.289 453.532C133.289 454.604 133.715 455.633 134.474 456.391C135.232 457.15 136.261 457.576 137.333 457.576Z" fill="#0B1157"/>
<path d="M183.105 459.14C183.832 459.14 184.552 458.997 185.223 458.719C185.895 458.441 186.505 458.033 187.019 457.519C187.533 457.005 187.941 456.395 188.219 455.723C188.497 455.052 188.64 454.332 188.64 453.605C188.64 452.137 188.056 450.729 187.019 449.691C185.981 448.654 184.573 448.07 183.105 448.07C181.638 448.071 180.23 448.654 179.193 449.692C178.156 450.73 177.573 452.138 177.573 453.605C177.573 454.332 177.716 455.051 177.994 455.723C178.271 456.394 178.679 457.004 179.193 457.518C179.706 458.032 180.316 458.44 180.987 458.718C181.659 458.997 182.378 459.14 183.105 459.14Z" fill="#0B1157"/>
<path d="M228.968 460.479C230.315 460.479 231.632 460.079 232.753 459.331C233.873 458.582 234.746 457.518 235.262 456.274C235.777 455.029 235.912 453.659 235.649 452.338C235.386 451.016 234.737 449.802 233.784 448.85C232.832 447.897 231.618 447.248 230.296 446.986C228.975 446.723 227.605 446.858 226.36 447.374C225.116 447.89 224.052 448.763 223.304 449.883C222.555 451.004 222.156 452.321 222.156 453.668C222.156 455.474 222.874 457.207 224.152 458.484C225.429 459.761 227.162 460.479 228.968 460.479Z" fill="#0B1157"/>
<path d="M274.914 461.485C276.451 461.486 277.954 461.031 279.232 460.177C280.51 459.324 281.507 458.111 282.095 456.691C282.684 455.272 282.839 453.709 282.539 452.202C282.24 450.694 281.5 449.309 280.414 448.222C279.327 447.135 277.943 446.395 276.435 446.095C274.928 445.794 273.366 445.948 271.945 446.536C270.525 447.124 269.312 448.12 268.458 449.398C267.604 450.676 267.148 452.178 267.148 453.715C267.148 454.735 267.348 455.745 267.738 456.688C268.128 457.631 268.7 458.487 269.421 459.209C270.143 459.93 270.999 460.503 271.941 460.893C272.884 461.284 273.894 461.485 274.914 461.485Z" fill="#0B1157"/>
<path d="M320.914 462.157C322.577 462.157 324.202 461.663 325.585 460.739C326.967 459.815 328.044 458.502 328.68 456.966C329.317 455.429 329.483 453.739 329.158 452.108C328.834 450.477 328.033 448.979 326.857 447.804C325.682 446.628 324.184 445.827 322.553 445.503C320.922 445.178 319.232 445.345 317.695 445.981C316.159 446.617 314.846 447.694 313.922 449.077C312.998 450.459 312.504 452.084 312.504 453.747C312.504 454.852 312.721 455.945 313.143 456.966C313.566 457.986 314.185 458.914 314.966 459.695C315.747 460.476 316.675 461.095 317.695 461.518C318.716 461.94 319.81 462.157 320.914 462.157Z" fill="#0B1157"/>
<path d="M366.943 462.157C368.606 462.157 370.231 461.663 371.614 460.739C372.996 459.815 374.073 458.502 374.709 456.966C375.346 455.429 375.512 453.739 375.187 452.108C374.863 450.477 374.062 448.979 372.886 447.804C371.711 446.628 370.213 445.827 368.582 445.503C366.951 445.178 365.261 445.345 363.724 445.981C362.188 446.617 360.875 447.694 359.951 449.077C359.027 450.459 358.533 452.084 358.533 453.747C358.533 454.852 358.75 455.945 359.172 456.966C359.595 457.986 360.214 458.914 360.995 459.695C361.776 460.476 362.704 461.095 363.724 461.518C364.745 461.94 365.838 462.157 366.943 462.157Z" fill="#0B1157"/>
<path d="M412.953 461.597C417.303 461.597 420.829 458.071 420.829 453.721C420.829 449.371 417.303 445.845 412.953 445.845C408.603 445.845 405.077 449.371 405.077 453.721C405.077 458.071 408.603 461.597 412.953 461.597Z" fill="#0B1157"/>
<path d="M458.911 460.592C462.732 460.592 465.829 457.495 465.829 453.674C465.829 449.853 462.732 446.756 458.911 446.756C455.09 446.756 451.993 449.853 451.993 453.674C451.993 457.495 455.09 460.592 458.911 460.592Z" fill="#0B1157"/>
<path d="M504.793 459.252C507.908 459.252 510.434 456.726 510.434 453.611C510.434 450.496 507.908 447.97 504.793 447.97C501.678 447.97 499.152 450.496 499.152 453.611C499.152 456.726 501.678 459.252 504.793 459.252Z" fill="#0B1157"/>
<path d="M550.6 457.801C551.442 457.801 552.265 457.551 552.964 457.083C553.664 456.615 554.209 455.95 554.531 455.172C554.853 454.394 554.937 453.539 554.773 452.713C554.609 451.887 554.203 451.129 553.608 450.534C553.013 449.939 552.255 449.533 551.429 449.369C550.603 449.205 549.748 449.289 548.97 449.611C548.192 449.933 547.527 450.478 547.059 451.178C546.591 451.877 546.341 452.7 546.341 453.542C546.341 454.101 546.451 454.655 546.665 455.172C546.879 455.689 547.192 456.159 547.588 456.554C547.983 456.95 548.453 457.263 548.97 457.477C549.487 457.691 550.041 457.801 550.6 457.801Z" fill="#0B1157"/>
<path d="M614.552 456.126C615.078 456.125 615.592 455.969 616.029 455.676C616.466 455.383 616.806 454.967 617.007 454.481C617.207 453.995 617.259 453.46 617.156 452.945C617.053 452.429 616.8 451.955 616.427 451.584C616.055 451.212 615.581 450.959 615.065 450.857C614.55 450.755 614.015 450.807 613.529 451.009C613.043 451.21 612.628 451.551 612.336 451.989C612.044 452.426 611.888 452.94 611.888 453.466C611.888 453.816 611.957 454.162 612.091 454.485C612.225 454.808 612.421 455.101 612.669 455.348C612.916 455.595 613.21 455.791 613.533 455.924C613.856 456.058 614.202 456.126 614.552 456.126Z" fill="#0B1157"/>
<path d="M652.934 454.455C653.144 454.455 653.35 454.392 653.524 454.275C653.699 454.158 653.835 453.992 653.915 453.797C653.996 453.603 654.016 453.389 653.975 453.183C653.934 452.977 653.833 452.787 653.684 452.639C653.536 452.49 653.346 452.389 653.14 452.348C652.934 452.306 652.72 452.327 652.526 452.408C652.331 452.488 652.165 452.624 652.048 452.799C651.931 452.973 651.868 453.179 651.868 453.389C651.868 453.529 651.895 453.668 651.948 453.797C652.002 453.927 652.08 454.045 652.179 454.144C652.278 454.243 652.396 454.321 652.526 454.375C652.655 454.428 652.794 454.455 652.934 454.455Z" fill="#0B1157"/>
<path d="M57.894 498.046C58.0058 498.046 58.1165 498.024 58.2198 497.981C58.3231 497.939 58.417 497.876 58.496 497.797C58.5751 497.718 58.6377 497.624 58.6805 497.521C58.7232 497.418 58.7451 497.307 58.745 497.195C58.7451 497.083 58.7232 496.972 58.6805 496.869C58.6377 496.766 58.5751 496.672 58.496 496.593C58.417 496.514 58.3231 496.451 58.2198 496.409C58.1165 496.366 58.0058 496.344 57.894 496.344C57.7822 496.344 57.6715 496.366 57.5682 496.409C57.4648 496.451 57.371 496.514 57.2919 496.593C57.2129 496.672 57.1502 496.766 57.1075 496.869C57.0648 496.972 57.0428 497.083 57.043 497.195C57.0428 497.307 57.0648 497.418 57.1075 497.521C57.1502 497.624 57.2129 497.718 57.2919 497.797C57.371 497.876 57.4648 497.939 57.5682 497.981C57.6715 498.024 57.7822 498.046 57.894 498.046Z" fill="#0B1157"/>
<path d="M96.276 499.636C96.8972 499.636 97.4929 499.389 97.9321 498.95C98.3713 498.511 98.618 497.915 98.618 497.294C98.618 496.673 98.3713 496.077 97.9321 495.638C97.4929 495.199 96.8972 494.952 96.276 494.952C95.6549 494.952 95.0592 495.199 94.62 495.638C94.1808 496.077 93.934 496.673 93.934 497.294C93.934 497.915 94.1808 498.511 94.62 498.95C95.0592 499.389 95.6549 499.636 96.276 499.636Z" fill="#0B1157"/>
<path d="M160.34 500.999C160.815 500.999 161.286 500.906 161.725 500.724C162.164 500.542 162.564 500.276 162.9 499.94C163.236 499.603 163.502 499.204 163.684 498.765C163.866 498.326 163.959 497.855 163.959 497.38C163.959 496.42 163.578 495.5 162.899 494.821C162.22 494.142 161.3 493.761 160.34 493.761C159.38 493.761 158.46 494.142 157.781 494.821C157.102 495.5 156.721 496.42 156.721 497.38C156.721 497.855 156.814 498.326 156.996 498.765C157.178 499.204 157.444 499.603 157.78 499.94C158.117 500.276 158.516 500.542 158.955 500.724C159.394 500.906 159.865 500.999 160.34 500.999Z" fill="#0B1157"/>
<path d="M206.137 502.367C207.106 502.367 208.053 502.08 208.859 501.541C209.665 501.003 210.293 500.238 210.664 499.342C211.035 498.447 211.132 497.462 210.943 496.511C210.754 495.561 210.287 494.687 209.602 494.002C208.917 493.317 208.043 492.85 207.093 492.661C206.142 492.472 205.157 492.569 204.262 492.94C203.366 493.311 202.601 493.939 202.063 494.745C201.524 495.551 201.237 496.498 201.237 497.467C201.237 498.767 201.753 500.013 202.672 500.932C203.591 501.851 204.837 502.367 206.137 502.367Z" fill="#0B1157"/>
<path d="M252.019 503.387C253.177 503.387 254.308 503.044 255.271 502.401C256.233 501.757 256.983 500.843 257.426 499.774C257.869 498.704 257.985 497.528 257.76 496.392C257.534 495.257 256.976 494.214 256.158 493.395C255.339 492.577 254.296 492.019 253.161 491.793C252.026 491.568 250.849 491.684 249.779 492.127C248.71 492.57 247.796 493.32 247.152 494.282C246.509 495.245 246.166 496.376 246.166 497.534C246.166 498.303 246.317 499.064 246.611 499.774C246.905 500.484 247.336 501.13 247.88 501.673C248.423 502.217 249.069 502.648 249.779 502.942C250.489 503.236 251.25 503.387 252.019 503.387Z" fill="#0B1157"/>
<path d="M297.96 504.07C299.244 504.07 300.499 503.689 301.566 502.975C302.634 502.262 303.466 501.248 303.957 500.062C304.448 498.876 304.577 497.57 304.326 496.311C304.076 495.052 303.457 493.895 302.55 492.987C301.642 492.08 300.485 491.461 299.226 491.211C297.967 490.96 296.661 491.089 295.475 491.58C294.289 492.071 293.275 492.903 292.562 493.971C291.848 495.038 291.467 496.293 291.467 497.577C291.467 499.299 292.151 500.95 293.369 502.168C294.587 503.386 296.238 504.07 297.96 504.07Z" fill="#0B1157"/>
<path d="M343.937 504.3C345.263 504.301 346.561 503.909 347.664 503.173C348.768 502.437 349.628 501.39 350.137 500.165C350.645 498.94 350.779 497.591 350.521 496.29C350.263 494.989 349.625 493.794 348.688 492.855C347.75 491.916 346.556 491.277 345.255 491.018C343.954 490.758 342.605 490.89 341.379 491.397C340.154 491.904 339.106 492.764 338.369 493.866C337.631 494.969 337.237 496.266 337.237 497.592C337.237 499.37 337.942 501.075 339.199 502.333C340.455 503.591 342.159 504.298 343.937 504.3Z" fill="#0B1157"/>
<path d="M389.918 504.07C391.202 504.07 392.457 503.689 393.524 502.975C394.592 502.262 395.424 501.248 395.915 500.062C396.406 498.876 396.535 497.57 396.284 496.311C396.034 495.052 395.415 493.895 394.508 492.987C393.6 492.08 392.443 491.461 391.184 491.211C389.925 490.96 388.619 491.089 387.433 491.58C386.247 492.071 385.233 492.903 384.52 493.971C383.806 495.038 383.425 496.293 383.425 497.577C383.425 498.43 383.593 499.274 383.919 500.062C384.245 500.85 384.724 501.566 385.327 502.169C385.929 502.771 386.645 503.25 387.433 503.576C388.221 503.902 389.065 504.07 389.918 504.07Z" fill="#0B1157"/>
<path d="M435.867 503.387C437.025 503.387 438.156 503.044 439.119 502.401C440.081 501.757 440.832 500.843 441.275 499.774C441.718 498.704 441.833 497.528 441.608 496.392C441.382 495.257 440.824 494.214 440.006 493.395C439.187 492.577 438.144 492.019 437.009 491.793C435.874 491.568 434.697 491.684 433.627 492.127C432.558 492.57 431.644 493.32 431 494.282C430.357 495.245 430.014 496.376 430.014 497.534C430.014 498.303 430.165 499.064 430.459 499.774C430.753 500.484 431.184 501.13 431.728 501.673C432.271 502.217 432.917 502.648 433.627 502.942C434.337 503.236 435.098 503.387 435.867 503.387Z" fill="#0B1157"/>
<path d="M481.769 502.478C484.531 502.478 486.771 500.239 486.771 497.476C486.771 494.713 484.531 492.474 481.769 492.474C479.006 492.474 476.767 494.713 476.767 497.476C476.767 500.239 479.006 502.478 481.769 502.478Z" fill="#0B1157"/>
<path d="M527.586 501.114C528.323 501.114 529.043 500.895 529.656 500.486C530.269 500.077 530.746 499.495 531.028 498.814C531.31 498.133 531.384 497.384 531.24 496.661C531.097 495.939 530.742 495.275 530.221 494.754C529.7 494.233 529.036 493.878 528.314 493.734C527.591 493.59 526.842 493.663 526.161 493.945C525.48 494.227 524.898 494.705 524.488 495.317C524.079 495.93 523.86 496.65 523.86 497.387C523.86 497.876 523.956 498.361 524.143 498.813C524.33 499.266 524.605 499.676 524.951 500.023C525.297 500.369 525.708 500.643 526.16 500.831C526.612 501.018 527.097 501.114 527.586 501.114Z" fill="#0B1157"/>
<path d="M595.358 499.751C595.842 499.751 596.315 499.607 596.718 499.338C597.12 499.069 597.434 498.687 597.619 498.239C597.804 497.792 597.852 497.3 597.758 496.825C597.663 496.35 597.43 495.914 597.088 495.572C596.746 495.23 596.31 494.997 595.835 494.902C595.36 494.808 594.868 494.856 594.421 495.041C593.973 495.226 593.591 495.54 593.322 495.942C593.053 496.345 592.909 496.818 592.909 497.302C592.909 497.951 593.167 498.574 593.626 499.034C594.086 499.493 594.708 499.751 595.358 499.751Z" fill="#0B1157"/>
<path d="M633.742 498.161C634.271 498.161 634.7 497.732 634.7 497.203C634.7 496.674 634.271 496.245 633.742 496.245C633.213 496.245 632.784 496.674 632.784 497.203C632.784 497.732 633.213 498.161 633.742 498.161Z" fill="#0B1157"/>
<path d="M77.083 541.518C77.2244 541.518 77.36 541.462 77.4599 541.362C77.5599 541.262 77.616 541.126 77.616 540.985C77.616 540.844 77.5599 540.708 77.4599 540.608C77.36 540.508 77.2244 540.452 77.083 540.452C77.0133 540.452 76.9442 540.466 76.8798 540.493C76.8154 540.52 76.757 540.559 76.7078 540.609C76.6587 540.658 76.6198 540.717 76.5934 540.781C76.567 540.846 76.5536 540.915 76.554 540.985C76.5536 541.055 76.567 541.124 76.5934 541.188C76.6198 541.253 76.6587 541.312 76.7078 541.361C76.757 541.411 76.8154 541.45 76.8798 541.477C76.9442 541.504 77.0133 541.518 77.083 541.518Z" fill="#0B1157"/>
<path d="M115.466 542.791C115.918 542.791 116.352 542.611 116.672 542.291C116.992 541.971 117.172 541.537 117.172 541.085C117.172 540.861 117.128 540.64 117.042 540.433C116.956 540.226 116.83 540.039 116.672 539.881C116.513 539.723 116.325 539.598 116.118 539.513C115.911 539.428 115.69 539.384 115.466 539.385C115.243 539.385 115.022 539.429 114.815 539.514C114.609 539.6 114.422 539.725 114.264 539.883C114.106 540.041 113.981 540.228 113.895 540.434C113.81 540.641 113.766 540.862 113.766 541.085C113.766 541.536 113.945 541.969 114.264 542.289C114.582 542.609 115.015 542.789 115.466 542.791Z" fill="#0B1157"/>
<path d="M183.363 544.061C184.95 544.061 186.237 542.774 186.237 541.187C186.237 539.6 184.95 538.313 183.363 538.313C181.776 538.313 180.489 539.6 180.489 541.187C180.489 542.774 181.776 544.061 183.363 544.061Z" fill="#0B1157"/>
<path d="M229.181 545.102C231.297 545.102 233.013 543.386 233.013 541.27C233.013 539.154 231.297 537.438 229.181 537.438C227.065 537.438 225.349 539.154 225.349 541.27C225.349 543.386 227.065 545.102 229.181 545.102Z" fill="#0B1157"/>
<path d="M275.061 545.8C275.945 545.8 276.81 545.538 277.545 545.047C278.28 544.556 278.854 543.858 279.192 543.041C279.531 542.224 279.62 541.325 279.447 540.458C279.275 539.591 278.85 538.794 278.225 538.169C277.599 537.543 276.803 537.117 275.936 536.944C275.069 536.771 274.17 536.86 273.353 537.198C272.536 537.536 271.837 538.108 271.346 538.843C270.854 539.578 270.591 540.443 270.591 541.327C270.591 542.513 271.062 543.65 271.9 544.489C272.738 545.327 273.875 545.799 275.061 545.8Z" fill="#0B1157"/>
<path d="M320.983 546.26C321.952 546.26 322.9 545.973 323.705 545.434C324.511 544.896 325.139 544.13 325.51 543.235C325.881 542.34 325.978 541.355 325.789 540.404C325.6 539.454 325.133 538.58 324.448 537.895C323.763 537.21 322.889 536.743 321.939 536.554C320.988 536.365 320.003 536.462 319.108 536.833C318.213 537.204 317.447 537.832 316.909 538.638C316.37 539.443 316.083 540.391 316.083 541.36C316.083 542.003 316.21 542.641 316.456 543.235C316.702 543.83 317.063 544.37 317.518 544.825C317.973 545.28 318.513 545.641 319.108 545.887C319.702 546.133 320.34 546.26 320.983 546.26Z" fill="#0B1157"/>
<path d="M366.92 546.26C367.889 546.26 368.837 545.973 369.642 545.434C370.448 544.896 371.076 544.13 371.447 543.235C371.818 542.34 371.915 541.355 371.726 540.404C371.537 539.454 371.07 538.58 370.385 537.895C369.7 537.21 368.826 536.743 367.876 536.554C366.925 536.365 365.94 536.462 365.045 536.833C364.15 537.204 363.384 537.832 362.846 538.638C362.307 539.443 362.02 540.391 362.02 541.36C362.02 542.66 362.536 543.906 363.455 544.825C364.374 545.744 365.62 546.26 366.92 546.26Z" fill="#0B1157"/>
<path d="M412.847 545.91C413.752 545.91 414.637 545.642 415.39 545.139C416.142 544.636 416.729 543.921 417.076 543.085C417.422 542.248 417.513 541.328 417.336 540.44C417.16 539.553 416.724 538.737 416.084 538.097C415.444 537.457 414.628 537.021 413.741 536.844C412.853 536.667 411.933 536.758 411.096 537.104C410.26 537.45 409.545 538.037 409.042 538.789C408.539 539.542 408.27 540.427 408.27 541.332C408.27 541.933 408.388 542.529 408.618 543.084C408.847 543.64 409.185 544.144 409.61 544.57C410.035 544.995 410.539 545.332 411.095 545.562C411.65 545.792 412.246 545.91 412.847 545.91Z" fill="#0B1157"/>
<path d="M458.739 545.218C459.518 545.218 460.279 544.987 460.927 544.554C461.575 544.121 462.079 543.506 462.377 542.786C462.675 542.066 462.753 541.274 462.601 540.51C462.449 539.746 462.074 539.044 461.523 538.494C460.972 537.943 460.271 537.568 459.507 537.416C458.743 537.264 457.951 537.342 457.231 537.64C456.511 537.938 455.896 538.442 455.463 539.09C455.03 539.738 454.799 540.499 454.799 541.278C454.799 542.323 455.214 543.325 455.953 544.064C456.692 544.803 457.694 545.218 458.739 545.218Z" fill="#0B1157"/>
<path d="M504.572 544.177C505.161 544.177 505.737 544.002 506.227 543.674C506.717 543.346 507.098 542.881 507.324 542.336C507.549 541.792 507.608 541.193 507.493 540.615C507.378 540.037 507.094 539.506 506.677 539.09C506.261 538.673 505.73 538.389 505.152 538.274C504.574 538.159 503.975 538.218 503.43 538.443C502.886 538.669 502.421 539.05 502.093 539.54C501.765 540.03 501.59 540.606 501.59 541.195C501.59 541.986 501.904 542.744 502.463 543.304C503.023 543.863 503.781 544.177 504.572 544.177Z" fill="#0B1157"/>
<path d="M550.334 542.903C550.692 542.903 551.042 542.797 551.339 542.598C551.637 542.399 551.868 542.117 552.005 541.786C552.142 541.456 552.178 541.092 552.108 540.741C552.038 540.39 551.866 540.068 551.613 539.815C551.36 539.562 551.038 539.39 550.687 539.32C550.336 539.25 549.972 539.286 549.642 539.423C549.311 539.56 549.029 539.791 548.83 540.089C548.631 540.386 548.525 540.736 548.525 541.094C548.526 541.574 548.716 542.033 549.055 542.373C549.395 542.712 549.854 542.902 550.334 542.903Z" fill="#0B1157"/>
<path d="M614.551 541.634C614.904 541.634 615.19 541.348 615.19 540.995C615.19 540.642 614.904 540.356 614.551 540.356C614.198 540.356 613.912 540.642 613.912 540.995C613.912 541.348 614.198 541.634 614.551 541.634Z" fill="#0B1157"/>
<path d="M96.276 595.698C96.3043 595.698 96.3314 595.686 96.3514 595.666C96.3714 595.646 96.3827 595.619 96.383 595.591C96.383 595.577 96.3802 595.564 96.3748 595.551C96.3693 595.538 96.3613 595.527 96.3513 595.518C96.3412 595.508 96.3294 595.501 96.3164 595.496C96.3035 595.492 96.2897 595.49 96.276 595.491C96.2623 595.49 96.2485 595.492 96.2356 595.496C96.2226 595.501 96.2108 595.508 96.2007 595.518C96.1907 595.527 96.1827 595.538 96.1772 595.551C96.1718 595.564 96.169 595.577 96.169 595.591C96.1693 595.619 96.1806 595.646 96.2006 595.666C96.2206 595.686 96.2477 595.698 96.276 595.698Z" fill="#0B1157"/>
<path d="M160.626 596.55C161.155 596.55 161.584 596.121 161.584 595.592C161.584 595.063 161.155 594.634 160.626 594.634C160.097 594.634 159.668 595.063 159.668 595.592C159.668 596.121 160.097 596.55 160.626 596.55Z" fill="#0B1157"/>
<path d="M206.393 597.4C207.392 597.4 208.202 596.59 208.202 595.591C208.202 594.592 207.392 593.782 206.393 593.782C205.394 593.782 204.584 594.592 204.584 595.591C204.584 596.59 205.394 597.4 206.393 597.4Z" fill="#0B1157"/>
<path d="M252.209 598.145C253.62 598.145 254.763 597.002 254.763 595.591C254.763 594.18 253.62 593.037 252.209 593.037C250.798 593.037 249.655 594.18 249.655 595.591C249.655 597.002 250.798 598.145 252.209 598.145Z" fill="#0B1157"/>
<path d="M298.074 598.573C298.663 598.573 299.239 598.399 299.73 598.071C300.22 597.744 300.602 597.279 300.828 596.735C301.053 596.19 301.113 595.591 300.998 595.013C300.883 594.435 300.6 593.904 300.183 593.487C299.767 593.07 299.236 592.786 298.658 592.671C298.08 592.555 297.481 592.614 296.936 592.839C296.392 593.064 295.926 593.446 295.598 593.936C295.271 594.426 295.095 595.002 295.095 595.591C295.095 595.982 295.171 596.37 295.321 596.732C295.47 597.094 295.69 597.422 295.966 597.699C296.243 597.976 296.572 598.196 296.933 598.346C297.295 598.496 297.683 598.573 298.074 598.573Z" fill="#0B1157"/>
<path d="M343.96 598.783C344.591 598.783 345.209 598.596 345.734 598.245C346.259 597.894 346.668 597.395 346.91 596.812C347.152 596.228 347.215 595.586 347.092 594.967C346.968 594.348 346.664 593.779 346.218 593.332C345.771 592.886 345.202 592.582 344.583 592.458C343.964 592.335 343.322 592.398 342.738 592.64C342.155 592.882 341.656 593.291 341.305 593.816C340.954 594.341 340.767 594.958 340.767 595.59C340.767 596.009 340.849 596.425 341.01 596.812C341.17 597.199 341.405 597.552 341.702 597.848C341.998 598.145 342.35 598.38 342.738 598.54C343.125 598.701 343.541 598.783 343.96 598.783Z" fill="#0B1157"/>
<path d="M389.85 598.573C390.439 598.573 391.015 598.399 391.506 598.071C391.996 597.744 392.378 597.279 392.604 596.735C392.829 596.19 392.889 595.591 392.774 595.013C392.659 594.435 392.376 593.904 391.959 593.487C391.543 593.07 391.012 592.786 390.434 592.671C389.856 592.555 389.257 592.614 388.712 592.839C388.168 593.064 387.702 593.446 387.374 593.936C387.047 594.426 386.871 595.002 386.871 595.591C386.871 595.982 386.947 596.37 387.097 596.732C387.246 597.094 387.466 597.422 387.742 597.699C388.019 597.976 388.348 598.196 388.709 598.346C389.071 598.496 389.459 598.573 389.85 598.573Z" fill="#0B1157"/>
<path d="M435.719 598.145C437.13 598.145 438.273 597.002 438.273 595.591C438.273 594.18 437.13 593.037 435.719 593.037C434.309 593.037 433.165 594.18 433.165 595.591C433.165 597.002 434.309 598.145 435.719 598.145Z" fill="#0B1157"/>
<path d="M481.553 597.508C482.611 597.508 483.469 596.65 483.469 595.592C483.469 594.534 482.611 593.676 481.553 593.676C480.495 593.676 479.637 594.534 479.637 595.592C479.637 596.65 480.495 597.508 481.553 597.508Z" fill="#0B1157"/>
<path d="M527.323 596.55C527.852 596.55 528.281 596.121 528.281 595.592C528.281 595.063 527.852 594.634 527.323 594.634C526.794 594.634 526.365 595.063 526.365 595.592C526.365 596.121 526.794 596.55 527.323 596.55Z" fill="#0B1157"/>
<path d="M595.358 595.805C595.415 595.804 595.469 595.782 595.509 595.742C595.549 595.702 595.571 595.648 595.572 595.591C595.571 595.535 595.549 595.481 595.509 595.441C595.468 595.402 595.414 595.38 595.358 595.38C595.33 595.38 595.303 595.385 595.277 595.396C595.251 595.406 595.228 595.422 595.208 595.442C595.189 595.461 595.173 595.484 595.163 595.51C595.152 595.536 595.147 595.563 595.147 595.591C595.147 595.647 595.169 595.701 595.208 595.742C595.248 595.782 595.302 595.804 595.358 595.805Z" fill="#0B1157"/>
<path d="M183.625 634.081C183.684 634.081 183.732 634.033 183.732 633.974C183.732 633.915 183.684 633.867 183.625 633.867C183.566 633.867 183.518 633.915 183.518 633.974C183.518 634.033 183.566 634.081 183.625 634.081Z" fill="#0B1157"/>
<path d="M229.411 634.506C229.705 634.506 229.943 634.268 229.943 633.974C229.943 633.68 229.705 633.442 229.411 633.442C229.117 633.442 228.879 633.68 228.879 633.974C228.879 634.268 229.117 634.506 229.411 634.506Z" fill="#0B1157"/>
<path d="M275.212 635.039C275.422 635.039 275.628 634.977 275.803 634.861C275.979 634.744 276.115 634.578 276.196 634.384C276.277 634.19 276.299 633.976 276.258 633.769C276.217 633.563 276.116 633.373 275.968 633.224C275.819 633.075 275.63 632.973 275.424 632.932C275.217 632.89 275.003 632.911 274.809 632.991C274.614 633.071 274.448 633.207 274.33 633.382C274.213 633.557 274.15 633.763 274.15 633.973C274.15 634.255 274.262 634.526 274.461 634.725C274.66 634.925 274.93 635.038 275.212 635.039Z" fill="#0B1157"/>
<path d="M321.051 635.253C321.304 635.253 321.55 635.177 321.76 635.037C321.97 634.896 322.134 634.697 322.23 634.463C322.327 634.23 322.352 633.973 322.302 633.725C322.253 633.477 322.131 633.25 321.953 633.071C321.774 632.893 321.547 632.771 321.299 632.722C321.051 632.672 320.794 632.697 320.561 632.794C320.327 632.89 320.128 633.054 319.987 633.264C319.847 633.474 319.771 633.72 319.771 633.973C319.771 634.312 319.906 634.638 320.146 634.878C320.386 635.118 320.712 635.253 321.051 635.253Z" fill="#0B1157"/>
<path d="M366.895 635.251C367.6 635.251 368.172 634.679 368.172 633.974C368.172 633.269 367.6 632.697 366.895 632.697C366.19 632.697 365.618 633.269 365.618 633.974C365.618 634.679 366.19 635.251 366.895 635.251Z" fill="#0B1157"/>
<path d="M412.736 635.039C412.946 635.039 413.152 634.976 413.326 634.859C413.501 634.742 413.637 634.576 413.717 634.381C413.798 634.187 413.819 633.973 413.778 633.767C413.736 633.561 413.635 633.371 413.486 633.223C413.338 633.074 413.148 632.973 412.942 632.932C412.736 632.89 412.522 632.911 412.328 632.992C412.133 633.072 411.967 633.208 411.85 633.383C411.733 633.557 411.67 633.763 411.67 633.973C411.67 634.113 411.697 634.252 411.751 634.381C411.804 634.51 411.883 634.628 411.982 634.727C412.081 634.826 412.199 634.905 412.328 634.958C412.457 635.012 412.596 635.039 412.736 635.039Z" fill="#0B1157"/>
<path d="M458.55 634.613C458.903 634.613 459.189 634.327 459.189 633.974C459.189 633.621 458.903 633.335 458.55 633.335C458.197 633.335 457.911 633.621 457.911 633.974C457.911 634.327 458.197 634.613 458.55 634.613Z" fill="#0B1157"/>
<path d="M504.342 634.186C504.398 634.185 504.452 634.163 504.492 634.123C504.531 634.082 504.553 634.028 504.553 633.972C504.553 633.944 504.548 633.917 504.537 633.891C504.527 633.865 504.511 633.842 504.492 633.822C504.472 633.803 504.449 633.787 504.423 633.777C504.397 633.766 504.37 633.761 504.342 633.761C504.286 633.761 504.232 633.783 504.191 633.822C504.151 633.862 504.129 633.916 504.128 633.972C504.129 634.029 504.151 634.083 504.191 634.123C504.231 634.163 504.285 634.185 504.342 634.186Z" fill="#0B1157"/>
</g>
<defs>
<clipPath id="clip0">
<rect width="710" height="658" fill="white"/>
</clipPath>
</defs>
</svg>
