<svg width="300" height="300" viewBox="0 0 300 300" fill="none" xmlns="http://www.w3.org/2000/svg">
<path d="M125.942 269.43L135.72 258.002L144.007 249.948L148.922 246.6L155.091 242.076L155.248 235.565L151.562 230.884L147.928 232.427L149.366 227.772L150.359 223.013V218.619L147.719 217.181L144.974 218.462L142.255 218.122L141.393 215.037L140.713 207.793L139.327 205.439L134.386 203.295L131.406 204.838L123.668 203.321L124.138 192.704L121.969 188.363L124.269 186.768L123.563 182.348L125.576 178.975L126.883 172.908L125.132 168.149L121.132 166.004L120.348 162.997L121.42 158.604L107.381 158.29L104.558 149.477L106.701 149.372L106.597 146.104L105.159 143.907L104.845 139.566L100.584 137.343L95.9829 137.422L92.9503 135.251L87.9832 133.76L85.1075 130.962L76.8988 129.733L68.9252 123.065L69.5266 118.096L68.6377 115.246L69.3958 109.702L59.8015 110.957L55.9585 113.729L49.5536 116.736L47.9066 118.959L44.1421 119.142L38.6782 118.515L34.5478 119.796L31.2015 118.933L31.6982 107.688L25.6854 112.029L19.2281 111.846L16.457 107.897L11.5946 107.479L13.137 104.315L9.05872 99.8169L6 93.2008L7.93461 91.8672V88.7553L12.3788 86.6371L11.6468 82.6883L13.503 80.1255L14.052 76.726L22.4175 71.7312L28.4304 70.3452L29.3977 69.2468L36.0117 69.5868L39.3057 49.5816L39.4887 46.4174L38.3385 42.2594L35.0967 39.592L35.1229 34.3096L39.2534 33.1067L40.7174 33.865L40.9527 31.067L36.6653 30.3086L36.5869 25.7583L50.8607 25.9153L53.292 23.4048L55.3312 25.706L56.7428 30.0209L58.1283 29.1057L62.1805 32.9759L67.8796 32.5052L69.2913 30.2562L74.7289 28.5564L77.7615 27.3797L78.598 24.2939L83.8527 22.2019L83.4344 20.6852L77.2386 20.0575L76.2191 15.455L76.5066 10.5648L73.2388 8.68195L74.5982 8.00209L80.0359 8.94347L85.8657 10.774L87.9832 9.0481L93.2379 7.89746L101.447 5.17778L104.139 2.37972L103.146 0.313795L106.963 0L108.688 1.6736L107.721 4.89016L110.231 5.98844L111.93 9.38807L109.891 11.9508L108.714 18.1746L110.597 21.8619L111.119 25.2353L115.642 28.6349L119.25 29.001L120.06 27.5889L122.361 27.2751L125.681 25.9937L128.06 24.0585L132.112 24.66L133.89 24.3985L137.889 25L138.543 23.5094L137.314 22.0711L138.046 19.9529L141 20.6067L144.477 19.8483L148.66 21.3912L151.876 22.9079L154.15 20.9205L155.771 21.2343L156.791 23.3002L160.294 22.7772L163.091 20.0052L165.339 14.6182L169.679 7.94973L172.189 7.60984L173.992 11.637L178.097 24.3985L182.018 25.6014L182.227 30.6224L176.711 36.6109L178.986 38.8075L191.952 39.9582L192.214 47.2541L197.782 42.4686L207.01 45.1098L219.167 49.5554L222.748 53.818L221.546 57.8452L230.068 55.5962L244.342 59.4665L255.296 59.1789L266.119 65.2197L275.478 73.4048L281.125 75.4969L287.399 75.8107L290.065 78.1119L292.549 87.4477L293.778 91.8672L290.85 104.053L287.111 108.865L276.785 119.168L272.106 127.563L266.694 134.048L264.864 134.205L262.799 139.697L263.322 153.818L261.283 165.533L260.498 170.581L258.198 173.588L256.891 183.891L249.466 194.038L248.211 202.118L242.277 205.544L240.551 210.277L232.604 210.251L221.075 213.311L215.899 216.841L207.69 219.168L199.063 225.549L192.867 233.551L191.795 239.618L193.024 244.142L191.639 252.458L189.992 256.511L184.868 261.088L176.737 275.942L170.28 282.714L165.287 286.742L161.967 295.005L157.104 300L155.065 295.031L158.307 290.926L154.072 285.042L148.32 280.282L140.765 274.843L138.046 275.079L130.7 268.541L125.942 269.43Z" fill="white"/>
</svg>
