<svg xmlns="http://www.w3.org/2000/svg" width="58.62" height="78" viewBox="0 0 58.62 78">
  <g id="estimula" transform="translate(-272.88 -1211.5)">
    <path id="Path_5756" data-name="Path 5756" d="M175.625,55.375A9.375,9.375,0,1,1,166.25,46,9.374,9.374,0,0,1,175.625,55.375ZM177.5,98.311a9.413,9.413,0,0,0,7.5-9.186V76a9.4,9.4,0,0,0-9.375-9.375h-18.75A9.4,9.4,0,0,0,147.5,76V89.125a9.413,9.413,0,0,0,7.5,9.186v17.064A5.64,5.64,0,0,0,160.625,121h0a5.642,5.642,0,0,0,5.625-5.625v0A5.64,5.64,0,0,0,171.875,121h0a5.642,5.642,0,0,0,5.625-5.625V98.311Z" transform="translate(145 1167)" fill="none" stroke="#fff" stroke-linecap="round" stroke-linejoin="round" stroke-width="3"/>
    <g id="Group_3093" data-name="Group 3093" transform="translate(-53 -237)">
      <path id="Path_5761" data-name="Path 5761" d="M7.042-4.9a.773.773,0,0,1,.56.217.737.737,0,0,1,.224.553.737.737,0,0,1-.224.553.773.773,0,0,1-.56.217H5.082v1.834a.86.86,0,0,1-.259.644.9.9,0,0,1-.651.252.9.9,0,0,1-.651-.252.86.86,0,0,1-.259-.644V-3.36H1.344a.76.76,0,0,1-.56-.224.76.76,0,0,1-.224-.56A.714.714,0,0,1,.784-4.69a.787.787,0,0,1,.56-.21H3.262V-6.986a.86.86,0,0,1,.259-.644.914.914,0,0,1,.665-.252.872.872,0,0,1,.644.252.872.872,0,0,1,.252.644V-4.9Z" transform="translate(333 1478)" fill="#0098ff"/>
      <path id="Path_5760" data-name="Path 5760" d="M7.042-4.9a.773.773,0,0,1,.56.217.737.737,0,0,1,.224.553.737.737,0,0,1-.224.553.773.773,0,0,1-.56.217H5.082v1.834a.86.86,0,0,1-.259.644.9.9,0,0,1-.651.252.9.9,0,0,1-.651-.252.86.86,0,0,1-.259-.644V-3.36H1.344a.76.76,0,0,1-.56-.224.76.76,0,0,1-.224-.56A.714.714,0,0,1,.784-4.69a.787.787,0,0,1,.56-.21H3.262V-6.986a.86.86,0,0,1,.259-.644.914.914,0,0,1,.665-.252.872.872,0,0,1,.644.252.872.872,0,0,1,.252.644V-4.9Z" transform="translate(340 1463)" fill="#0098ff"/>
      <path id="Path_5759" data-name="Path 5759" d="M11.066-7.7a1.214,1.214,0,0,1,.88.341,1.158,1.158,0,0,1,.352.869,1.158,1.158,0,0,1-.352.869,1.214,1.214,0,0,1-.88.341H7.986V-2.4a1.351,1.351,0,0,1-.407,1.012,1.408,1.408,0,0,1-1.023.4,1.408,1.408,0,0,1-1.023-.4A1.351,1.351,0,0,1,5.126-2.4V-5.28H2.112a1.194,1.194,0,0,1-.88-.352,1.194,1.194,0,0,1-.352-.88,1.122,1.122,0,0,1,.352-.858,1.237,1.237,0,0,1,.88-.33H5.126v-3.278a1.351,1.351,0,0,1,.407-1.012,1.436,1.436,0,0,1,1.045-.4,1.37,1.37,0,0,1,1.012.4,1.37,1.37,0,0,1,.4,1.012V-7.7Z" transform="translate(325 1468)" fill="#0098ff"/>
    </g>
  </g>
</svg>
