<svg xmlns="http://www.w3.org/2000/svg" width="77.485" height="77.388" viewBox="0 0 77.485 77.388">
  <g id="forca" transform="translate(2.121 2.121)">
    <path id="Path_5628" data-name="Path 5628" d="M404.584,525.47l8.569-8.567a3.341,3.341,0,0,0,.972-2.584l-.118-1.755c-.309-4.637,3.606-9.66,7.184-13.238" transform="translate(-404.584 -473.208)" fill="none" stroke="#fff" stroke-linecap="round" stroke-miterlimit="10" stroke-width="3"/>
    <g id="Group_3017" data-name="Group 3017" transform="translate(13.234 13.136)">
      <line id="Line_2" data-name="Line 2" x1="7.577" y1="7.577" transform="translate(39.296 31.061)" fill="none" stroke="#0098ff" stroke-linecap="round" stroke-miterlimit="10" stroke-width="3"/>
      <line id="Line_3" data-name="Line 3" x2="7.577" y2="7.577" transform="translate(31.061 39.296)" fill="none" stroke="#0098ff" stroke-linecap="round" stroke-miterlimit="10" stroke-width="3"/>
      <line id="Line_4" data-name="Line 4" x1="9.909" y1="9.909" transform="translate(0 8.235)" fill="none" stroke="#0098ff" stroke-linecap="round" stroke-miterlimit="10" stroke-width="3"/>
      <line id="Line_5" data-name="Line 5" x1="9.909" y1="9.909" transform="translate(8.235)" fill="none" stroke="#0098ff" stroke-linecap="round" stroke-miterlimit="10" stroke-width="3"/>
    </g>
    <path id="Path_5629" data-name="Path 5629" d="M415.593,532.691l7.446-7.448a3.845,3.845,0,0,1,2.174-1.086l6.565-.193a4.933,4.933,0,0,0,2.747-1.345l6.923-6.721" transform="translate(-397.085 -461.92)" fill="none" stroke="#fff" stroke-linecap="round" stroke-miterlimit="10" stroke-width="3"/>
    <path id="Path_5630" data-name="Path 5630" d="M415.552,512.238l16.3-16.3a3.686,3.686,0,0,1,5.215,0l.072.072L452.7,513.789a3.689,3.689,0,0,1,0,5.215l-11.227,11.227" transform="translate(-397.113 -476.254)" fill="none" stroke="#fff" stroke-linecap="round" stroke-miterlimit="10" stroke-width="3"/>
    <line id="Line_6" data-name="Line 6" y1="7.482" x2="7.482" transform="translate(34.847 23.073)" fill="none" stroke="#fff" stroke-linecap="round" stroke-miterlimit="10" stroke-width="3"/>
    <line id="Line_7" data-name="Line 7" y1="8.207" x2="8.207" transform="translate(39.612 28.562)" fill="none" stroke="#fff" stroke-linecap="round" stroke-miterlimit="10" stroke-width="3"/>
    <line id="Line_8" data-name="Line 8" y1="8.894" x2="8.894" transform="translate(43.729 34.738)" fill="none" stroke="#fff" stroke-linecap="round" stroke-miterlimit="10" stroke-width="3"/>
    <rect id="Rectangle_24" data-name="Rectangle 24" width="31.055" height="7.764" transform="translate(45.009 66.871) rotate(-45)" fill="none" stroke="#0098ff" stroke-linecap="round" stroke-miterlimit="10" stroke-width="3"/>
    <rect id="Rectangle_25" data-name="Rectangle 25" width="31.055" height="7.764" transform="translate(0.881 22.743) rotate(-45)" fill="none" stroke="#0098ff" stroke-linecap="round" stroke-miterlimit="10" stroke-width="3"/>
    <rect id="Rectangle_26" data-name="Rectangle 26" width="17.746" height="7.764" transform="translate(55.205 67.655) rotate(-45)" fill="none" stroke="#0098ff" stroke-linecap="round" stroke-miterlimit="10" stroke-width="3"/>
    <rect id="Rectangle_27" data-name="Rectangle 27" width="17.746" height="7.764" transform="translate(0.097 12.548) rotate(-45)" fill="none" stroke="#0098ff" stroke-linecap="round" stroke-miterlimit="10" stroke-width="3"/>
  </g>
</svg>
