<svg xmlns="http://www.w3.org/2000/svg" width="150.436" height="44.3" viewBox="0 0 150.436 44.3">
  <g id="Group_3013" data-name="Group 3013" transform="translate(-606.964 -9)">
    <g id="logo-forteviron" transform="translate(557.893 -150.745)">
      <path id="Path_5599" data-name="Path 5599" d="M49.139,269.748l-.068,3.033,89.286-9.7.072-3.077Z" transform="translate(0 -68.736)" fill="#01aaff" fill-rule="evenodd"/>
      <path id="Path_5600" data-name="Path 5600" d="M519.213,162.461a1.547,1.547,0,0,1,1.337.827,1.641,1.641,0,0,1-.006,1.59,1.445,1.445,0,0,1-.574.571,1.518,1.518,0,0,1-1.543-.042,1.488,1.488,0,0,1-.567-.6,1.7,1.7,0,0,1-.207-.8,1.719,1.719,0,0,1,.22-.8,1.431,1.431,0,0,1,.575-.567,1.53,1.53,0,0,1,.765-.18m0,.309a1.23,1.23,0,0,0-.615.148,1.13,1.13,0,0,0-.463.457,1.272,1.272,0,0,0-.17.639,1.306,1.306,0,0,0,.159.643,1.236,1.236,0,0,0,.457.487,1.226,1.226,0,0,0,1.239.035,1.163,1.163,0,0,0,.461-.461,1.34,1.34,0,0,0,.17-.633,1.409,1.409,0,0,0-.168-.65,1.2,1.2,0,0,0-.461-.484,1.253,1.253,0,0,0-.611-.18m-.713,2.108.008-1.687.335.01c.314.013.487.017.523.023a.623.623,0,0,1,.26.073.464.464,0,0,1,.154.166.551.551,0,0,1,.059.245.444.444,0,0,1-.121.308.528.528,0,0,1-.325.155.38.38,0,0,1,.115.065.684.684,0,0,1,.109.13c.013.017.052.086.121.211l.2.346-.415-.014-.137-.276a1.1,1.1,0,0,0-.231-.355.359.359,0,0,0-.229-.077l-.084,0,0,.694Zm.339-.948.138.006a1.738,1.738,0,0,0,.357-.014.188.188,0,0,0,.11-.077.254.254,0,0,0,.043-.129.261.261,0,0,0-.039-.124.224.224,0,0,0-.114-.08,1.508,1.508,0,0,0-.357-.035l-.136,0Z" transform="translate(-321.245 -1.861)" fill="#fff"/>
      <path id="Path_5601" data-name="Path 5601" d="M356.964,159.745l-4.917.544-.2,4.187,4.928-.544Z" transform="translate(-207.577 0)" fill="#fff"/>
      <path id="Path_5602" data-name="Path 5602" d="M165.571,204.7l.317-2.25-4.617.53-1.051,19.46,4.873-.562.667-12.258c.107-1.816,4.194-2.767,5.646-2.8l.446-4.99c-2.6.106-5.09.857-6.28,2.864" transform="translate(-76.199 -28.854)" fill="#fff"/>
      <path id="Path_5603" data-name="Path 5603" d="M213.1,189.849l3.268-.37a11.374,11.374,0,0,1,1.317-4.014,8.973,8.973,0,0,1,.809-1.367c-1.232.194-5.014.565-5.014.565l.549-6.262-4.941.491-.535,6.324-2.847.321L205.4,190.7l2.763-.366c-.163,3.475-.47,6.362-.346,9.893.159,4.508,5.118,4.093,8.216,3.322l.187-4.084c-3.337.3-3.467.077-3.289-3.4Z" transform="translate(-107.174 -12.79)" fill="#fff"/>
      <path id="Path_5604" data-name="Path 5604" d="M117.935,219.129c-.257,2.074-.377,5.008-3,5.2-1.524.1-2.162-.919-2.227-2.214a25.51,25.51,0,0,1,.142-3.595,25,25,0,0,1,.658-3.932,2.462,2.462,0,0,1,2.579-2.115,1.779,1.779,0,0,1,1.978,1.393,18.174,18.174,0,0,1-.13,5.259M116.2,208.9c-6.57.781-7.632,4.1-8.181,10.377-.43,4.944.353,7.7,3.26,8.7,3.354,1.158,8.7-.439,10.338-3.852a17.5,17.5,0,0,0,1.169-5.718c.557-5.754.1-10.3-6.585-9.507" transform="translate(-40.34 -33.639)" fill="#fff"/>
      <path id="Path_5605" data-name="Path 5605" d="M476.2,167.4c-2.3.225-3.517.335-5.772,2.385l-.214.03.113-1.448-4.894.5-1.15,19.278,4.816-.533.823-12.019a5.144,5.144,0,0,1,2.752-2.788,1.688,1.688,0,0,1,2.525,1.636c-.039,1.09-.834,12.589-.834,12.589l4.869-.542.926-15.564c.16-2.422-1.248-3.79-3.959-3.525" transform="translate(-284.656 -5.222)" fill="#fff"/>
      <path id="Path_5606" data-name="Path 5606" d="M421.359,185.488c-.256,2.072-.375,5.008-3,5.205-1.527.1-2.165-.92-2.229-2.216a30.093,30.093,0,0,1,.8-7.527,2.464,2.464,0,0,1,2.579-2.115,1.779,1.779,0,0,1,1.98,1.391,18.189,18.189,0,0,1-.131,5.26m-1.73-10.227c-6.571.781-7.632,4.1-8.182,10.378-.431,4.942.357,7.7,3.259,8.7,3.354,1.158,8.7-.437,10.339-3.853a17.529,17.529,0,0,0,1.169-5.719c.557-5.754.1-10.3-6.585-9.506" transform="translate(-248.358 -10.576)" fill="#fff"/>
      <path id="Path_5607" data-name="Path 5607" d="M304.334,186.358l-3.261,11.349-.184,0-1.95-10.754-5,.553,4.291,18.841,4.509-.5,6.546-20.041Z" transform="translate(-167.873 -17.869)" fill="#fff"/>
      <path id="Path_5608" data-name="Path 5608" d="M255.469,200.334l-4.918.55.141-1.3a3.489,3.489,0,0,1,2.911-3.135c1.446-.132,2.12.552,2.189,1.76a18.733,18.733,0,0,1-.322,2.128m-5-6.145a6.757,6.757,0,0,0-3.146,2.884,9.23,9.23,0,0,0-.8,1.961c-.094.374-.186.813-.264,1.287l-.006.025h0a39.107,39.107,0,0,0-.473,4.666c-.122,3.371.11,7.231,4.433,7.81,2.842.383,6.44-.729,8.576-1.743l.516-4.177c-2.8,1.638-9.9,4.167-9.071-1.255l.149-1.289,9.041-.923c.159-2.511.816-6.518-.778-8.452-1.808-2.2-5.7-1.867-8.177-.795" transform="translate(-134.839 -23.041)" fill="#fff"/>
      <path id="Path_5609" data-name="Path 5609" d="M347.5,183.508l-1.488,19.551,4.976-.553,1.446-19.544Z" transform="translate(-203.574 -15.917)" fill="#fff"/>
      <path id="Path_5610" data-name="Path 5610" d="M377.119,181.118l.315-2.25-4.617.529-1.052,19.461,4.873-.56.549-11.245c.712-3.53,3.991-3.829,5.446-3.816a12.884,12.884,0,0,1,2.093-5.093c-4.106.132-6.47,1.055-7.607,2.973" transform="translate(-221.229 -12.614)" fill="#fff"/>
      <path id="Path_5611" data-name="Path 5611" d="M57.135,197.318l11.632-1.256.249-4.735-17.248,1.73-1.877,26.094,5.729-.635.886-11.871L66.2,205.57a9.894,9.894,0,0,1,.147-2.178,8.683,8.683,0,0,1,.475-1.9c.073-.224.146-.436.221-.63L56.834,202Z" transform="translate(-0.562 -21.651)" fill="#fff"/>
      <g id="Group_3012" data-name="Group 3012" transform="translate(141.877 186.612)">
        <path id="Path_5612" data-name="Path 5612" d="M452.417,256.72c-.232.037-.258-.1-.324-.446-.058-.194-.091-.395-.134-.593,0-.007,0-.014,0-.02-.1-.457-.2-.914-.3-1.369a.24.24,0,0,0-.3-.19c-.519.052-1.04.088-1.559.141-.38.039-.758.093-1.136.145-.276.038-.339.065-.479.5-.206.707-.3.969-.475,1.5-.11.369-.273.881-.482.977a4.166,4.166,0,0,1-.948.125c-.332.029-.623.064-1.08.086-.178.009-.187-.084-.105-.322.126-.367,4.271-11.131,4.453-11.6.065-.169.152-.22.365-.25.265-.029,1.5-.205,1.809-.215.109,0,.117.027.129.068.031.107,2.673,10.648,2.712,10.88.03.18.041.326-.284.353C453.966,256.539,452.768,256.7,452.417,256.72Zm-1.595-4.637c.245-.032.329-.108.337-.355.012-.351-.438-2.47-.558-3.045a.139.139,0,0,0-.257-.053c-.1.159-.933,2.807-1.008,3.074-.087.308-.024.49.3.472S450.737,252.094,450.823,252.083Z" transform="translate(-413.343 -245.191)" fill="#01aaff"/>
        <path id="Path_5613" data-name="Path 5613" d="M351.6,268.433c-.232.037-.258-.1-.324-.446-.058-.194-.091-.4-.134-.593,0-.006,0-.013,0-.02-.1-.456-.2-.913-.3-1.369a.24.24,0,0,0-.3-.189c-.519.052-1.04.088-1.559.142-.38.039-.758.093-1.136.145-.276.038-.339.065-.479.5-.206.707-.3.969-.475,1.5-.11.369-.273.88-.481.976a4.167,4.167,0,0,1-.949.125c-.332.03-.623.064-1.08.087-.179.009-.187-.085-.105-.323.127-.366,4.271-11.131,4.453-11.6.065-.169.152-.22.365-.25.265-.029,1.5-.205,1.809-.216.109,0,.117.027.129.068.031.107,2.673,10.648,2.713,10.88.031.18.041.327-.284.353C353.151,268.252,351.953,268.41,351.6,268.433Zm-1.595-4.637c.245-.032.329-.108.337-.355.012-.351-.438-2.47-.558-3.045a.139.139,0,0,0-.257-.053c-.1.158-.933,2.807-1.008,3.074-.087.308-.024.49.3.472S349.922,263.808,350.008,263.8Z" transform="translate(-344.227 -253.221)" fill="#01aaff"/>
        <path id="Path_5614" data-name="Path 5614" d="M477.376,254.64a5.174,5.174,0,0,1,.816-1.458,3.2,3.2,0,0,1,2.556-1.278,7.366,7.366,0,0,1,1.3.052c.371.069,1.382.2,1.336,1.357-.041,1-.546,6.853-.591,7.427a3.573,3.573,0,0,1-.694,1.886,4.049,4.049,0,0,1-1.358,1.233,4.5,4.5,0,0,1-2.977.432,1.318,1.318,0,0,1-.4-.112c-.085-.046-.195-.16-.191-.238.027-.488.076-.975.132-1.461.017-.145.111-.186.263-.12a2.327,2.327,0,0,0,2.171-.125,1.455,1.455,0,0,0,.777-1.332.234.234,0,0,0-.275-.244c-.231.009-.544.036-.774.02a5.872,5.872,0,0,1-1.052-.137c-1.136-.293-1.373-1.816-1.4-2.543A10.058,10.058,0,0,1,477.376,254.64Zm2.3,4.131a.636.636,0,0,0,.633.225.563.563,0,0,0,.4-.4c.036-.408.263-3.24.294-3.694a4.443,4.443,0,0,0-.015-.732.414.414,0,0,0-.148-.264.724.724,0,0,0-.907.182,3.613,3.613,0,0,0-.556,1.3A4.66,4.66,0,0,0,479.677,258.771Z" transform="translate(-435.256 -249.791)" fill="#01aaff"/>
        <path id="Path_5615" data-name="Path 5615" d="M379.067,271.207c-.011.178.075.96-.407.991-.468.059-1.123.158-1.573.176-.353.061-.389-.351-.346-.924.028-.575.5-6.507.542-6.684a.445.445,0,0,1,.171-.249,25.684,25.684,0,0,1,2.852-1.25,3.989,3.989,0,0,1,1.309-.144,2.912,2.912,0,0,1,1.176.338,1.739,1.739,0,0,1,.817.888c.275.7-.168,6.985-.187,7.1a.261.261,0,0,1-.254.236c-.573.059-1.129.129-1.7.18-.265.023-.313-.026-.287-.289.05-.689.344-5.283.313-5.691a.692.692,0,0,0-.635-.63,3.407,3.407,0,0,0-1.011.158.7.7,0,0,0-.455.581C379.389,266.1,379.1,270.645,379.067,271.207Z" transform="translate(-366.507 -257.483)" fill="#01aaff"/>
        <path id="Path_5616" data-name="Path 5616" d="M500.92,258.4a2.117,2.117,0,0,1-1.437-1.343c-.367-.689.021-4.482.6-5.764a3.145,3.145,0,0,1,1-1.263,3.441,3.441,0,0,1,3.741.029c1.059.8.79,3.383.739,3.726a.443.443,0,0,1-.379.442,22.276,22.276,0,0,1-2.633.3c-1.081.091-1.049.195-1.122.379-.233.661-.058,1.361,1.153,1.3a7.711,7.711,0,0,0,1.9-.519c.524-.294.561.065.56.126,0,.417,0,.835-.042,1.249a.668.668,0,0,1-.241.358,3.613,3.613,0,0,1-.556.407A4.474,4.474,0,0,1,500.92,258.4Zm1.251-5.368c.228-.018.844-.084.913-.1.3-.09.43-.1.469-.41-.064-.117.159-1.285-.7-1.264-.379.037-.942.1-1.113,1.156C501.746,252.949,501.746,253.029,502.171,253.03Z" transform="translate(-450.567 -248.137)" fill="#01aaff"/>
        <path id="Path_5617" data-name="Path 5617" d="M401.7,257.6c-.162.008-.377.024-.681.042-.475.016-.474.016-.471-.453a4.522,4.522,0,0,1,.109-1.144c.078-.176-.036-.143.688-.269.352-.061.353.008.384-.331.219-2.362.219-2.362.374-2.377.618-.062,1.236-.122,1.855-.175a.2.2,0,0,1,.223.224c-.014.561-.3,2.293-.119,2.266.408-.059.989-.1,1.213-.11.167-.01.229.093.22.268-.03.6-.061.963-.11,1.488-.053.225-.186.207-.5.236-.225.012-.449.023-.673.045-.287.043-.293,0-.329.14-.1.956-.223,2.213-.394,4.069a1.132,1.132,0,0,0,.033.576c.087.177.256.265.663.166.158-.049.315-.1.475-.145s.271.013.26.188c-.03.435-.072.87-.123,1.3a.666.666,0,0,1-.5.54,6.277,6.277,0,0,1-.989.264,1.655,1.655,0,0,1-1.426-.314,1.518,1.518,0,0,1-.538-1.218C401.343,262.337,401.613,258.8,401.7,257.6Z" transform="translate(-382.839 -250.468)" fill="#01aaff"/>
        <path id="Path_5618" data-name="Path 5618" d="M419.957,260.5c-.02.317-.491,6.135-.578,7.237a.669.669,0,0,1-.67.665c-.448.042-.9.089-1.346.116-.312.018-.4-.075-.379-.384.092-1.347.192-2.693.287-4.04.035-.5.318-3.934.324-4.113a.272.272,0,0,1,.28-.294c.137-.013,1.392-.186,1.887-.187.195,0,.2.166.207.3C419.978,260.034,419.962,260.5,419.957,260.5Z" transform="translate(-394.105 -255)" fill="#01aaff"/>
        <path id="Path_5619" data-name="Path 5619" d="M431.13,267.061a.385.385,0,0,1-.435-.42c.007-.376.037-.751.062-1.127.013-.2.109-.237.325-.278.452-.052,3.231-.429,3.424-.463.238-.042.385.056.381.3-.007.5-.049,1-.094,1.5-.005.056-.122.14-.193.146C433.9,266.783,431.269,267.06,431.13,267.061Z" transform="translate(-403.507 -258.609)" fill="#01aaff"/>
        <path id="Path_5620" data-name="Path 5620" d="M422.009,249.664c-.016.292-.028.524-.04.755a.6.6,0,0,1-.574.6c-.455.038-.909.083-1.364.112-.286.019-.414-.1-.4-.385q.044-.762.126-1.522a.277.277,0,0,1,.175-.192c.535-.078,1.073-.137,1.611-.2a.881.881,0,0,1,.217,0,.251.251,0,0,1,.248.278C422.007,249.315,422.009,249.52,422.009,249.664Z" transform="translate(-395.922 -247.682)" fill="#01aaff"/>
      </g>
    </g>
  </g>
</svg>
