<svg xmlns="http://www.w3.org/2000/svg" width="68.535" height="67.252" viewBox="0 0 68.535 67.252">
  <g id="indicado" transform="translate(-185.465 -189.954)">
    <path id="Path_5641" data-name="Path 5641" d="M239.8,216.885a7.637,7.637,0,1,0-7.638-7.637A7.646,7.646,0,0,0,239.8,216.885Zm0-13.034a5.4,5.4,0,1,1-5.4,5.4A5.4,5.4,0,0,1,239.8,203.851Z" transform="translate(-40.022 -9.99)" fill="#fff"/>
    <path id="Path_5642" data-name="Path 5642" d="M207.589,324.222H191.967a6.509,6.509,0,0,0-6.5,6.5V345.1a6.441,6.441,0,0,0,5.315,6.34v18.055a1.121,1.121,0,0,0,2.241,0V332.62a1.121,1.121,0,0,0-2.241,0v16.525a4.2,4.2,0,0,1-3.073-4.044V330.724a4.265,4.265,0,0,1,4.26-4.261h15.623a4.266,4.266,0,0,1,4.261,4.261V345.1a4.2,4.2,0,0,1-3.074,4.045V332.62a1.121,1.121,0,0,0-2.241,0v36.875a1.121,1.121,0,1,0,2.241,0V351.44a6.44,6.44,0,0,0,5.316-6.34V330.724A6.509,6.509,0,0,0,207.589,324.222Z" transform="translate(0 -115.076)" fill="#fff"/>
    <path id="Path_5643" data-name="Path 5643" d="M278.877,479.208a1.121,1.121,0,0,0-1.121,1.121v22a1.121,1.121,0,1,0,2.241,0v-22A1.121,1.121,0,0,0,278.877,479.208Z" transform="translate(-79.099 -247.908)" fill="#fff"/>
    <path id="Path_5644" data-name="Path 5644" d="M515.727,216.5a7.446,7.446,0,1,0-7.446-7.446A7.454,7.454,0,0,0,515.727,216.5Zm0-12.65a5.2,5.2,0,1,1-5.205,5.2A5.21,5.21,0,0,1,515.727,203.853Z" transform="translate(-276.672 -9.992)" fill="#fff"/>
    <path id="Path_5645" data-name="Path 5645" d="M553.656,550.684a1.12,1.12,0,0,0-1.121,1.121v11.781a1.121,1.121,0,0,0,2.242,0V551.8A1.121,1.121,0,0,0,553.656,550.684Z" transform="translate(-314.6 -309.167)" fill="#fff"/>
    <path id="Path_5646" data-name="Path 5646" d="M484.811,342.894a5.946,5.946,0,0,0,.737-4.523l-3.6-15.291a3.612,3.612,0,0,0-3.529-2.794H463.107a3.611,3.611,0,0,0-3.529,2.795l-3.6,15.292a5.99,5.99,0,0,0,3.531,6.9l-2.074,8.81a1.12,1.12,0,0,0,1.091,1.377h5.059v10.661a1.121,1.121,0,0,0,2.241,0V354.34a1.12,1.12,0,0,0-1.121-1.12h-4.765l6.248-26.547A1.125,1.125,0,0,0,464,326.16l-3.973,16.881a3.751,3.751,0,0,1-1.866-4.154l3.6-15.291a1.379,1.379,0,0,1,1.348-1.067h15.314a1.379,1.379,0,0,1,1.347,1.066l3.6,15.291a3.749,3.749,0,0,1-1.865,4.155l-3.972-16.881a1.125,1.125,0,0,0-2.19.513l6.247,26.547h-4.764a1.12,1.12,0,0,0-1.121,1.12v11.781a1.121,1.121,0,0,0,2.241,0V355.461H483a1.12,1.12,0,0,0,1.091-1.377l-2.073-8.811A5.939,5.939,0,0,0,484.811,342.894Z" transform="translate(-231.709 -111.703)" fill="#fff"/>
    <path id="Path_5647" data-name="Path 5647" d="M416.314,189.954a1.121,1.121,0,0,0-1.121,1.12v65.011a1.121,1.121,0,0,0,2.242,0V191.074A1.121,1.121,0,0,0,416.314,189.954Z" transform="translate(-196.89)" fill="#0098ff"/>
  </g>
</svg>
