<svg xmlns="http://www.w3.org/2000/svg" width="62.409" height="76.241" viewBox="0 0 62.409 76.241">
  <g id="memoria" transform="translate(1.5 1.5)">
    <path id="Path_5622" data-name="Path 5622" d="M155.889,219.835V175.059a28.467,28.467,0,0,1,28.468-28.466h0a28.468,28.468,0,0,1,28.022,23.454L215.1,191.7h-9.3v14.9H188.955v8.947" transform="translate(-155.889 -146.593)" fill="none" stroke="#fff" stroke-linecap="round" stroke-miterlimit="10" stroke-width="3"/>
    <g id="Group_3015" data-name="Group 3015" transform="translate(8.919 8.9)">
      <path id="Path_5623" data-name="Path 5623" d="M189.038,168.029s-5.089,5.792-11.367,5.792-11.367-5.792-11.367-5.792,5.089-5.79,11.367-5.79S189.038,168.029,189.038,168.029Z" transform="translate(-157.712 -144.835)" fill="none" stroke="#0098ff" stroke-linecap="round" stroke-miterlimit="10" stroke-width="3"/>
      <g id="Group_3014" data-name="Group 3014">
        <path id="Path_5624" data-name="Path 5624" d="M173.231,161.3a7.9,7.9,0,0,0-7.343-5" transform="translate(-157.996 -148.883)" fill="none" stroke="#0098ff" stroke-linecap="round" stroke-miterlimit="10" stroke-width="3"/>
        <path id="Path_5625" data-name="Path 5625" d="M179.912,154.068a4.955,4.955,0,0,0-4.294,2.476" transform="translate(-151.368 -150.401)" fill="none" stroke="#0098ff" stroke-linecap="round" stroke-miterlimit="10" stroke-width="3"/>
        <path id="Path_5626" data-name="Path 5626" d="M169.084,175.081a7.89,7.89,0,1,1,1.522-15.63,9.256,9.256,0,0,1,16.874-3.33,4.923,4.923,0,0,1,7.216,4.391,5.044,5.044,0,0,1-.1.99,6.945,6.945,0,0,1-2.076,13.579" transform="translate(-161.194 -151.887)" fill="none" stroke="#0098ff" stroke-linecap="round" stroke-miterlimit="10" stroke-width="3"/>
        <path id="Path_5627" data-name="Path 5627" d="M179.872,160.971a4.755,4.755,0,0,0,2.1-3.949" transform="translate(-148.471 -148.389)" fill="none" stroke="#0098ff" stroke-linecap="round" stroke-miterlimit="10" stroke-width="3"/>
      </g>
    </g>
  </g>
</svg>
