<svg xmlns="http://www.w3.org/2000/svg" width="72.5" height="66.368" viewBox="0 0 72.5 66.368">
  <g id="natural" transform="translate(-239.641 -939.902)">
    <g id="Group_3037" data-name="Group 3037" transform="translate(258.022 969.194)">
      <g id="Group_3036" data-name="Group 3036" transform="translate(0)">
        <path id="Path_5648" data-name="Path 5648" d="M375.981,1174.9a12.135,12.135,0,0,1-4.786-23.287l29.842-12.806a12.132,12.132,0,0,1,9.568,22.3l-.438-1.02.438,1.02-29.842,12.806A12.108,12.108,0,0,1,375.981,1174.9Zm29.839-34.862a9.889,9.889,0,0,0-3.907.809l-29.842,12.806a9.912,9.912,0,0,0,7.817,18.217l29.842-12.806a9.917,9.917,0,0,0-3.91-19.026Z" transform="translate(-363.84 -1137.828)" fill="#fff"/>
        <path id="Path_5649" data-name="Path 5649" d="M421.614,1233.2a1.11,1.11,0,0,1-.738-1.939,12.115,12.115,0,0,1,3.286-2.087l8.472-3.635a1.11,1.11,0,1,1,.875,2.04l-8.472,3.635a9.9,9.9,0,0,0-2.685,1.7A1.106,1.106,0,0,1,421.614,1233.2Z" transform="translate(-412.117 -1212.485)" fill="#fff"/>
        <path id="Path_5650" data-name="Path 5650" d="M401.809,1287.918a1.111,1.111,0,0,1-1.033-1.515c.142-.363.3-.724.48-1.071a1.11,1.11,0,1,1,1.98,1c-.144.284-.276.579-.393.876A1.111,1.111,0,0,1,401.809,1287.918Z" transform="translate(-395.244 -1262.984)" fill="#fff"/>
        <path id="Path_5651" data-name="Path 5651" d="M522.368,1208.308a1.11,1.11,0,0,1-.924-1.724l2.109-3.178a10.947,10.947,0,0,0-6.1-16.574l-.807-.232a1.11,1.11,0,0,1,.613-2.134l.807.232a13.167,13.167,0,0,1,7.333,19.935l-2.109,3.178A1.109,1.109,0,0,1,522.368,1208.308Z" transform="translate(-493.349 -1177.528)" fill="#fff"/>
      </g>
    </g>
    <path id="Path_5652" data-name="Path 5652" d="M255.082,984.383a1.107,1.107,0,0,1-.421-.083,17.152,17.152,0,0,1-6.1-4.9c-2.641-3.243-5.651-9.084-4.993-18.494,1.122-16.042-3.245-18.865-3.29-18.887a1.11,1.11,0,0,1,.612-2.1,88.357,88.357,0,0,1,14.706,3.367c10.628,3.4,18.028,8.083,21.993,13.906a18.967,18.967,0,0,1,2.533,16.078,1.11,1.11,0,1,1-2.149-.557,16.834,16.834,0,0,0-2.219-14.272c-7.063-10.372-25.13-14.571-32.218-15.853,1.479,2.683,2.978,8.024,2.247,18.476-.481,6.876,1.075,12.733,4.5,16.937a15.035,15.035,0,0,0,5.226,4.252,1.11,1.11,0,0,1-.422,2.137Z" fill="#0098ff"/>
    <path id="Path_5653" data-name="Path 5653" d="M349.15,1044.284a1.11,1.11,0,0,1-1.106-1.034,27.877,27.877,0,0,0-7.62-17.318,30.254,30.254,0,0,0-6.9-5.649,1.11,1.11,0,0,1,1.055-1.953,31.834,31.834,0,0,1,7.417,6.036,30.576,30.576,0,0,1,8.26,18.733,1.11,1.11,0,0,1-1.032,1.183Z" transform="translate(-79.496 -66.707)" fill="#0098ff"/>
    <path id="Path_5654" data-name="Path 5654" d="M499.9,1013.191a1.11,1.11,0,0,1-.9-1.753c2.245-3.157,3.007-6.3,2.265-9.344-1.118-4.59-5.372-8.025-7.875-9.7a11.851,11.851,0,0,1-.972,4.275,15.181,15.181,0,0,0-1.094,4.452,1.11,1.11,0,0,1-2.214-.166,17.263,17.263,0,0,1,1.225-5.054,8.206,8.206,0,0,0,.608-5.382,1.11,1.11,0,0,1,1.587-1.238c.368.188,9.036,4.7,10.888,12.278.9,3.7.027,7.457-2.61,11.166A1.109,1.109,0,0,1,499.9,1013.191Z" transform="translate(-212.541 -41.967)" fill="#0098ff"/>
  </g>
</svg>
