<svg id="play" xmlns="http://www.w3.org/2000/svg" width="150" height="150" viewBox="0 0 150 150">
  <path id="Path_5754" data-name="Path 5754" d="M80.908,51.934l-55-37.5A2.5,2.5,0,0,0,22,16.5v75a2.5,2.5,0,0,0,3.908,2.065l55-37.5a2.5,2.5,0,0,0,0-4.13ZM27,86.767V21.232L75.063,54Z" transform="translate(33 21.001)" fill="#0098ff"/>
  <path id="Path_5755" data-name="Path 5755" d="M75,0a75,75,0,1,0,75,75A75.085,75.085,0,0,0,75,0Zm0,145a70,70,0,1,1,70-70A70.08,70.08,0,0,1,75,145Z" fill="#fff"/>
</svg>
