<svg xmlns="http://www.w3.org/2000/svg" width="72.665" height="81.936" viewBox="0 0 72.665 81.936">
  <g id="tonus" transform="translate(-909.175 -1219.5)">
    <g id="Group_3092" data-name="Group 3092" transform="translate(412 922.521)">
      <path id="Path_5757" data-name="Path 5757" d="M553.595,329.309c-5.564,0-9.128,2.825-12.016,7.119l4.812,3.269c-3.739-2.7-6.8-5.02-11.05-5.02-7.773,0-15.256,5.8-15.256,5.8s8.49-6.033,8.49-11.84c0-5.6-2.681-10.5-2.681-16.309,0,0,12.734,4.245,14.3,1.34,1.118-2.074,3.311-7.332,1.34-10.052-1.88-2.6-8.051-5.139-13.85-5.139-9.83,0-23.681,32.618-23.681,46.915s25.467,16.085,48.255,16.085a16.343,16.343,0,0,0,16.085-16.085C568.34,336.511,561.3,329.309,553.595,329.309Z" fill="none" stroke="#fff" stroke-linecap="round" stroke-linejoin="round" stroke-width="3"/>
      <path id="Path_5758" data-name="Path 5758" d="M533.274,308.948c-.062-.011-6.195-1.13-8.019-2.623a1.485,1.485,0,0,1-.625-1.221c.042-1.185,1.615-2.309,1.631-2.32l.017.022c-.017.013-1.578,1.126-1.618,2.3a1.452,1.452,0,0,0,.613,1.2c1.82,1.488,7.946,2.606,8.008,2.617Z" transform="translate(8.225 1.716)" fill="none" stroke="#fff" stroke-linecap="round" stroke-linejoin="round" stroke-width="3"/>
    </g>
    <path id="Path_5762" data-name="Path 5762" d="M21.632-2.839a2.474,2.474,0,0,1,1.793.695,2.359,2.359,0,0,1,.717,1.77,2.359,2.359,0,0,1-.717,1.77,2.474,2.474,0,0,1-1.793.695H15.357V7.963a2.752,2.752,0,0,1-.829,2.062,2.868,2.868,0,0,1-2.084.807,2.868,2.868,0,0,1-2.084-.807A2.752,2.752,0,0,1,9.53,7.963V2.091H3.39A2.432,2.432,0,0,1,1.6,1.374,2.432,2.432,0,0,1,.88-.419,2.287,2.287,0,0,1,1.6-2.167,2.52,2.52,0,0,1,3.39-2.839H9.53V-9.517a2.752,2.752,0,0,1,.829-2.062,2.926,2.926,0,0,1,2.129-.807,2.792,2.792,0,0,1,2.062.807,2.792,2.792,0,0,1,.807,2.062v6.678Z" transform="translate(956.198 1237.089)" fill="#0098ff"/>
    <path id="Path_5763" data-name="Path 5763" d="M13.057-6.784a1.452,1.452,0,0,1,1.052.408,1.384,1.384,0,0,1,.421,1.039A1.384,1.384,0,0,1,14.109-4.3a1.452,1.452,0,0,1-1.052.408H9.375V-.445A1.615,1.615,0,0,1,8.889.765a1.683,1.683,0,0,1-1.223.473A1.683,1.683,0,0,1,6.443.765a1.615,1.615,0,0,1-.487-1.21V-3.891h-3.6A1.427,1.427,0,0,1,1.3-4.312,1.427,1.427,0,0,1,.88-5.364,1.342,1.342,0,0,1,1.3-6.389a1.479,1.479,0,0,1,1.052-.395h3.6V-10.7a1.615,1.615,0,0,1,.487-1.21,1.717,1.717,0,0,1,1.249-.473,1.638,1.638,0,0,1,1.21.473,1.638,1.638,0,0,1,.473,1.21v3.919Z" transform="translate(908.295 1295.386)" fill="#0098ff"/>
    <path id="Path_5764" data-name="Path 5764" d="M9.482-8.429a1.026,1.026,0,0,1,.743.288.978.978,0,0,1,.3.734.978.978,0,0,1-.3.734,1.026,1.026,0,0,1-.743.288h-2.6v2.434a1.141,1.141,0,0,1-.344.855,1.189,1.189,0,0,1-.864.334A1.189,1.189,0,0,1,4.809-3.1a1.141,1.141,0,0,1-.344-.855V-6.385H1.92a1.008,1.008,0,0,1-.743-.3,1.008,1.008,0,0,1-.3-.743.948.948,0,0,1,.3-.725,1.044,1.044,0,0,1,.743-.279H4.466V-11.2a1.141,1.141,0,0,1,.344-.855,1.213,1.213,0,0,1,.883-.334,1.157,1.157,0,0,1,.855.334,1.157,1.157,0,0,1,.334.855v2.768Z" transform="translate(927.299 1304.198)" fill="#0098ff"/>
  </g>
</svg>
